<?xml version="1.0" encoding="UTF-8" standalone="no"?>
<svg
   xmlns:dc="http://purl.org/dc/elements/1.1/"
   xmlns:cc="http://creativecommons.org/ns#"
   xmlns:rdf="http://www.w3.org/1999/02/22-rdf-syntax-ns#"
   xmlns:svg="http://www.w3.org/2000/svg"
   xmlns="http://www.w3.org/2000/svg"
   id="svg3888"
   version="1.1"
   viewBox="0 0 125.9622 65.629868"
   height="65.629868mm"
   width="125.9622mm">
  <defs
     id="defs3882" />
  <metadata
     id="metadata3885">
    <rdf:RDF>
      <cc:Work
         rdf:about="">
        <dc:format>image/svg+xml</dc:format>
        <dc:type
           rdf:resource="http://purl.org/dc/dcmitype/StillImage" />
        <dc:title></dc:title>
      </cc:Work>
    </rdf:RDF>
  </metadata>
  <g
     transform="translate(-11.102232,-14.720777)"
     id="layer1">
    <g
       id="g3798"
       transform="matrix(0.26458333,0,0,0.26458333,-4.3866081,-119.09129)">
      <path
         d="m 469.2788,595.2516 0.0819,0.2449 c 0.1722,-0.091 0.2582,-0.1752 0.5256,-0.1752 0.2245,0 0.2118,0.0213 0.353,0.0361 l 0.523,0.0517 c 0.1781,0.009 0.1246,-0.0618 0.4378,-0.0878 v -0.1752 l -0.3734,-0.0121 0.1899,-0.4511 z m 18.3704,-9.3221 c 6.3559,0 12.4213,1.266 17.9573,3.5595 5.7523,2.383 10.9258,5.8716 15.2532,10.199 4.327,4.3273 7.8159,9.5008 10.1989,15.2534 2.2936,5.536 3.5595,11.6012 3.5595,17.957 0,6.3559 -1.2659,12.421 -3.5595,17.9571 -2.383,5.7525 -5.8719,10.926 -10.1989,15.2534 -4.3274,4.3273 -9.5009,7.8159 -15.2532,10.199 -5.536,2.2935 -11.6014,3.5595 -17.9573,3.5595 -6.3559,0 -12.4213,-1.266 -17.9573,-3.5595 -5.7523,-2.3831 -10.9258,-5.8717 -15.2532,-10.199 -4.3273,-4.3274 -7.8159,-9.5009 -10.199,-15.2532 -2.2935,-5.536 -3.5594,-11.6014 -3.5594,-17.9573 0,-6.3558 1.2659,-12.4213 3.5594,-17.9573 2.3831,-5.7523 5.8717,-10.9258 10.199,-15.2531 4.3274,-4.3274 9.5009,-7.816 15.2532,-10.199 5.536,-2.2935 11.6014,-3.5595 17.9573,-3.5595 z m -27.7844,11.0561 c -1.5194,1.1776 -2.9627,2.4501 -4.3205,3.8079 -1.016,1.016 -1.9833,2.0793 -2.8998,3.1867 0.0242,0.004 0.0488,0.008 0.0733,0.0106 l -0.3226,0.2934 -0.2568,0.3188 0.0491,0.1778 -0.4509,0.689 -0.2452,0.009 -0.0369,0.002 c -1.4001,1.8448 -2.6629,3.7994 -3.7714,5.848 l 0.2015,-0.1746 c 1.2675,0.0162 1.4589,-0.2872 2.1178,-0.8594 l 0.5199,0.1905 -0.0165,0.4225 0.0222,0.2626 0.8529,0.8161 -0.0647,0.0596 h 0.5256 v 0.2627 h 0.4378 c 0.0512,0.613 0.4382,0.0579 0.4382,1.2261 h -0.1752 v 0.2626 h -0.4382 v 0.1752 h -0.7007 c -0.3581,0 -0.4964,0.0887 -0.5256,0.4379 0.5344,0.0443 0.5167,0.4378 1.0511,0.4378 0.5735,0 -0.1045,-0.7882 0.5256,-0.7882 h 0.263 l 0.2204,-0.3844 0.0422,-0.3161 h 0.263 v -0.4379 h -0.1752 V 612.66 c 0,-0.1965 0.0691,-0.1923 0.1752,-0.3504 l 0.4334,0.1055 0.195,0.3811 0.1631,-0.4857 -1.1254,-0.5602 0.0556,-0.3202 -0.5103,0.004 c -0.1988,-0.133 -0.5256,-0.3906 -0.5256,-0.7005 v -0.3501 c -0.4218,-0.0352 -0.4904,-0.1037 -0.5255,-0.5256 h 0.1752 v -0.4378 l 0.5229,-0.1008 0.003,0.3634 h 0.263 v 0.1752 l 0.0998,-0.2603 0.1628,-0.002 0.193,0.7829 0.4204,0.005 0.0907,0.437 0.0405,-0.0934 1.2092,0.5622 c -0.0724,0.2538 -0.1143,0.2588 -0.1143,0.4952 v 0.4378 c 0,0.4337 0.3134,0.0373 0.0877,0.5253 l 0.7274,0.8338 c 0.0151,0.1509 -0.0266,0.1557 -0.0266,0.3923 0,0.1182 0.0972,0.1312 0.1752,0.1752 -0.2148,0.4473 0.343,0.5094 0.7882,0.6128 l -0.1099,-0.6092 0.2851,-0.004 v -0.1752 h -0.1752 v -0.1752 l 0.5227,0.1011 0.003,-0.2763 0.2565,0.104 c -0.096,-0.4003 -0.3965,-0.6186 -0.8695,-0.6293 0.0579,-0.2484 0.0874,-0.1498 0.0874,-0.3504 0,-0.1693 -0.119,-0.2848 -0.1752,-0.5253 h 0.3504 c 0.169,0 0.156,0.0275 0.263,0.0875 v -0.5253 l 1.05,-0.0963 0.5108,0.2266 -0.3247,0.1548 -0.01,0.5906 h 0.2629 l 0.1392,0.4529 -0.3108,0.0833 -0.004,0.3395 0.4373,0.0907 6e-4,0.4346 h 0.1752 v 0.1752 l -0.1882,0.0481 0.4511,0.0393 v 0.1752 h 0.3504 c 0.2423,0 0.2107,0.0677 0.2627,0.2627 h 0.7882 v -0.4379 c 0.7738,0.0175 0.8148,0.4379 1.3141,0.4379 h 0.4379 c 0.265,0 0.2422,-0.1028 0.2629,-0.3501 l 0.2644,-0.0828 0.5209,0.0961 0.3344,-0.219 c -0.0803,0.4021 -0.1562,0.1838 -0.1562,0.4683 v 0.7005 l 0.0183,1.0509 c -0.2774,0.094 -0.4012,0.7327 -0.5436,1.0509 -0.1968,0.439 -0.5375,0.6789 -0.6134,0.9631 l -1.1374,-0.1013 -0.1803,-0.2455 c -1.0095,0.2325 -0.5063,0.0425 -1.2225,0.522 l -2.2533,-0.5412 -0.0396,0.1075 -0.0913,-0.3495 -0.6816,-0.005 c -0.4125,0 -0.2893,-0.5253 -0.7886,-0.5253 -0.8889,0 -1.0662,0.2878 -1.4012,0.7879 v 0.876 c -0.1584,0.1058 -0.1543,0.1749 -0.3507,0.1749 -0.1058,0 -0.7738,-0.3696 -0.8757,-0.4378 h -0.3504 c -0.5173,-0.3463 -0.7886,-0.1013 -0.7886,-0.9632 l -0.6455,-0.1642 0.0325,-0.0984 h -0.2626 l -1.1428,-0.0414 c -0.009,-0.6233 -0.0556,-0.4068 -0.5218,-0.3964 0.0118,-0.5292 0.4139,-0.3708 0.6134,-1.2261 -0.0585,-0.1105 -0.1752,-0.2896 -0.1752,-0.4379 0,-0.1941 0.2213,-0.0281 0.2626,-0.5253 l -0.2564,0.1037 -0.006,-0.2789 h -0.3504 c -0.3481,0 -0.2653,0.3504 -0.6134,0.3504 -0.6866,0 -0.7028,-0.1465 -1.3138,0.2627 -0.8529,0 -1.6297,0.1932 -2.0338,0.6508 -2.1104,5.2365 -3.2721,10.9616 -3.2721,16.9605 0,1.3245 0.0571,2.6354 0.1678,3.9309 0.5951,0.008 0.484,0.2505 1.0211,0.2623 l 0.6999,-0.527 0.4387,10e-4 0.2896,-0.4178 0.7616,-0.0201 c 0.5809,0 0.5962,0.4187 0.9638,0.6131 v 0.5253 l 0.3004,0.4094 0.3126,0.0284 c 0.3043,0 0.1338,-0.1749 0.4381,-0.1749 H 447.9 c 0.2366,0 0.2417,0.0417 0.4381,0.0874 0.0314,0.3782 0.0494,0.3416 0.4379,0.3504 0.0458,0.1962 0.0874,0.2012 0.0874,0.4379 v 1.1383 l -0.1834,1.7603 c 0.5185,1.2361 0.7604,1.4651 1.5534,2.4746 0.4993,0.6352 0.7351,2.1056 1.258,2.8581 l -0.1879,0.2523 c 0.0913,0.159 0.6257,1.4657 0.6257,1.5866 v 0.5256 c 0,0.2422 -0.0673,0.2106 -0.2626,0.2626 l -0.2104,1.835 0.0352,0.2668 c 0,0.3105 0.1752,0.052 0.1752,0.7005 l 0.2523,0.1876 0.0103,0.4251 c 0.3552,0.2379 2.0876,2.6626 2.1024,3.3276 l 0.0949,-0.0576 0.3288,0.5383 0.7873,1.1333 -0.0723,0.0499 c 0.4023,0.0937 0.8381,0.4213 0.8759,0.8757 l 0.9333,0.5702 c 0.1037,0.837 1.3443,0.3818 1.3443,1.6191 0.5182,-0.2139 0.3265,0.2626 0.7008,0.2626 0.1483,0 0.3274,-0.1167 0.4379,-0.1752 2.2205,1.4864 2.9242,0.5114 4.0295,-1.1383 0,-0.5516 0.2207,-0.9785 -0.1752,-1.1384 0.0443,-0.5335 0.5811,-0.613 1.1386,-0.613 l 0.2769,-0.4287 -0.0157,-0.8848 10e-4,-0.2627 h -0.2627 c 0,-0.4511 -0.0153,-0.842 -0.3504,-0.9631 v -0.5256 h 0.263 c 0.0449,-0.5422 0.314,-0.4178 0.7215,-0.8548 0.275,-0.2951 0.5031,-0.4957 0.883,-0.6934 0.5832,-0.3031 1.5488,-0.8053 1.5488,-1.6042 v -0.0878 c 0,-0.1961 -0.0695,-0.192 -0.1752,-0.3501 l -0.1129,-2.5381 -0.5649,-0.3864 c -0.023,-0.6483 -0.2071,-0.7694 -0.1976,-1.542 0.0121,-1.0018 -0.351,-0.7463 -0.351,-1.3129 v -0.2627 c 0,-0.3199 0.4428,-1.0083 0.5814,-1.4329 0.1622,-0.4972 0.3847,-0.9619 0.9076,-1.0192 0.1607,-0.6896 0.8949,-1.5287 1.378,-1.9503 0.5125,-0.447 1.1073,-1.2151 1.6166,-1.6237 0.2246,-0.1796 0.5661,-0.6219 0.8113,-0.8527 0.3554,-0.3347 0.3539,-0.6213 0.6712,-0.9929 0.3889,-0.4556 0.6911,-2.1051 1.0415,-2.1987 0.0121,-0.5457 0.2629,-0.4222 0.2629,-1.0509 v -0.5253 h 0.1749 v -1.0509 h -0.7005 l -0.083,0.2647 c -0.6387,-0.002 -0.7427,0.1731 -1.3185,0.1731 h -0.4382 c -0.1628,0.4033 -1.2131,0.4379 -1.7517,0.4379 v 0.1752 h -0.1752 l -0.7315,-0.9248 c 0.0237,-0.2526 0.1182,-0.1828 0.1182,-0.3013 0,-0.4987 -1.5517,-2.1015 -1.8394,-2.1015 h -0.2627 c -0.0139,-0.6178 -0.0384,-0.3758 -0.3504,-0.2626 v -0.263 c 0,-0.0768 -0.4437,-1.2819 -0.5099,-1.4166 -0.3191,-0.6524 -0.2488,-0.6952 -0.8917,-1.0353 -0.0106,-0.4792 -0.1752,-0.6175 -0.1752,-1.1383 v -0.6131 l -0.1084,0.0308 -0.2021,-0.718 -0.3716,-0.2275 c -0.0745,-0.47 -0.4565,-0.1028 -0.4565,-1.0993 h 0.1752 c -0.3572,-0.5333 -2.0527,-3.6071 -2.1024,-4.2033 0.6547,0.3463 0.2766,1.2923 1.2264,1.3136 l 0.1835,-1.0681 -0.0322,0.9777 0.4609,0.0936 c 0.013,0.5401 1.0842,1.7219 1.3147,2.7113 l 0.0783,-0.0759 0.7755,0.798 0.008,0.4133 0.1022,0.003 v 0.5253 c 0,1.2087 0.79,1.2196 1.1511,1.6513 0.3244,0.3879 0.5344,1.5416 1.0388,1.6763 v 0.3501 l 0.2647,0.083 c -0.002,0.8066 -0.1844,1.3866 0.3483,1.6684 l 0.2721,1.5053 0.8668,-0.0166 c 0.0473,0 0.655,-0.4216 0.8051,-0.5084 0.338,-0.1965 0.5472,-0.1717 0.9363,-0.2901 0.4863,-0.1484 0.5858,-0.047 0.8869,-0.4267 0.1492,-0.1882 0.4494,-0.4384 0.7879,-0.4384 h 0.3501 c 0.1079,-0.2972 0.4967,-0.3418 0.876,-0.3504 v -0.7005 l 1.7284,-0.6 0.3252,-0.3244 0.0488,-0.3017 h 0.2629 c 0.3315,0 0.5815,-0.7879 0.8757,-0.7879 h 0.263 v -0.9632 c 0,-0.343 0.151,-0.1991 0.4378,-0.1752 v -0.3504 l 0.562,-0.5699 0.1539,-0.6535 c 0.0653,-0.4771 -2.3801,-0.8145 -2.3801,-2.1916 v -0.613 c -0.3631,0.0969 -0.5306,0.6718 -0.7708,0.8931 -0.2381,0.2192 -0.32,0.4104 -0.4048,0.4709 -0.2851,0.203 -0.3415,-0.0647 -0.4886,0.2996 h -0.263 l -0.9619,0.1002 -10e-4,-0.1876 h -0.3504 c 0.0458,-0.1965 0.0874,-0.2012 0.0874,-0.4379 v -0.7005 c 0,-0.2423 -0.0673,-0.2106 -0.2626,-0.2626 l -0.2098,0.9557 -0.4898,-0.9563 0.174,6e-4 c -0.0993,-0.3723 -0.2597,-0.7516 -0.7008,-0.7883 v -0.2626 h -0.2626 l -0.5835,-1.2846 -0.2051,-0.029 v -0.1752 h 0.3504 v -0.2626 l 0.3992,-0.1906 c 0.4026,0.1667 0.5746,-0.08 0.8721,0.32 0.2325,0.3126 0.2721,0.6107 0.5303,0.9593 0.5218,0.7046 1.2418,0.7188 1.6146,1.2754 l 0.7956,0.1448 0.245,-0.1572 0.7135,-0.065 -0.002,-0.2727 0.4257,0.1983 0.0121,0.4148 0.2648,0.0827 c 0.0133,0.6834 1.0899,0.6178 1.7502,0.6178 h 0.4378 c 0.0987,0.2443 0.26,0.2626 0.6131,0.2626 h 0.5255 v -0.1752 h 0.263 l 1.9275,-0.0809 0.3501,-0.007 c 0.2647,0 0.2419,0.1031 0.2626,0.3504 0.7351,0.171 0.2895,0.5524 0.7856,0.8783 0.2641,0.1737 0.8825,0.3838 0.9664,0.6978 h 0.7008 l -0.684,0.3856 c 0.1235,0.5675 0.733,1.1029 1.4722,1.1029 0.2727,0 0.5256,-0.2768 0.5256,-0.6128 v -0.3504 h 0.2627 l 0.2236,2.2729 0.2083,0.1078 c 0.0171,0.4792 0.4133,1.8232 0.5826,2.2971 0.1882,0.5262 0.8048,1.0695 0.8252,1.9774 l 0.2644,0.0827 c 0.0115,0.6021 0.1734,0.2783 0.1734,0.6178 v 0.2629 c 0.265,0.0958 0.6905,1.3809 0.7008,1.8389 l 0.2565,0.104 c 0.015,0.3787 0.4278,1.0343 0.707,1.0343 h 0.2629 c 0.0313,-0.2863 0.4455,-0.8834 0.7883,-0.9631 v -0.2627 c 0,-0.2656 0.1713,-0.4089 0.4381,-0.4381 v -0.7005 c 0,-0.478 0.1749,-0.4851 0.1749,-0.9632 V 630.61 c 0,-0.304 -0.1749,-0.1335 -0.1749,-0.4378 v -0.5253 c 0.4606,-0.1073 0.5749,0.0189 0.613,-0.4379 h 0.2627 c 0.2366,0 0.2417,-0.0419 0.4381,-0.0874 v -0.5256 c 0.4258,-0.1138 0.9528,-0.91 1.2598,-1.2799 0.483,-0.582 1.2695,-0.7676 1.2804,-1.2595 l 0.2565,-0.104 0.006,-0.2464 h -0.1752 v -0.4378 l 1.8391,-0.1788 -0.0121,-0.0942 0.2695,-0.0349 0.1099,-0.2112 0.2481,0.0765 c 0.005,-0.2759 -0.0301,-0.4331 0.2612,-0.4331 0.5191,0 0.5268,1.9886 1.6642,2.014 l 0.3212,0.3797 c 0.0446,0.6695 0.6423,0.8609 0.6423,2.16 v 0.2626 c 0.4677,0.1888 -0.0564,0.0765 0.304,0.309 0.0644,0.0417 0.2727,0.0692 0.3968,0.1289 l 0.9371,-0.897 -0.0422,-0.0966 0.3306,0.2065 c 9e-4,0.4375 0.008,0.6955 0.3513,0.7871 l 0.2023,1.221 c 0.3132,0.1424 0.4981,0.7658 0.4981,1.2308 v 0.6131 h 0.1755 l -0.2144,2.8879 0.0921,0.009 0.0467,-0.3554 c 0.3661,0.0298 0.3297,0.0478 0.3383,0.4361 0.2736,0.0227 0.876,0.9188 0.876,1.0509 v 0.7004 l 0.2727,0.4683 0.0777,0.4952 c 0,0.6281 1.6491,1.6297 1.752,2.014 h 0.1749 v -0.1752 h 0.3504 l -0.307,-1.0665 c -0.0434,-2.228 -0.8506,-1.8392 -1.4447,-2.9615 l -0.7833,-0.193 -0.361,-1.557 -0.2573,-10e-4 c -0.5894,0 0.1752,-2.2212 0.1752,-2.7146 0,-0.2272 -0.0588,-0.0901 -0.0878,-0.4378 h 0.6134 v 0.6127 h 0.5256 c 0.1879,0 0.9634,0.64 0.9634,1.0509 v 0.2627 h 0.3504 v 0.3504 h 0.6131 v 0.1749 h 0.3503 c -0.0227,0.2741 -0.0874,0.3114 -0.0874,0.613 v 0.6131 c 0.5551,-0.0606 0.1309,-0.507 0.9634,-0.5253 0.0532,-0.4863 0.0715,-0.0387 0.2455,-0.5472 0.149,-0.4346 -0.0452,-0.3282 0.3679,-0.2411 0.3719,-0.7025 0.9879,-0.1979 1.1419,-1.4861 0.1217,-1.021 -0.4411,-1.6154 -0.4411,-2.0166 v -0.2627 c -0.2981,-0.1202 -0.3513,-0.5256 -0.6128,-0.7011 -0.3194,-0.2148 -0.4021,-0.2171 -0.678,-0.548 -0.1968,-0.2358 -0.9709,-1.2394 -1.162,-1.2902 v -0.3504 c 0,-0.0984 0.4683,-1.1248 0.5277,-1.2237 0.1332,-0.2222 0.7861,-0.5277 1.1365,-0.5277 h 0.1752 c 0.2367,0 0.2417,0.0416 0.4382,0.0874 v 0.263 c 0,0.3244 0.0854,0.3956 0.2626,0.5253 h 0.263 v -0.2627 l -0.1002,-0.2603 1.7372,-0.8467 0.0272,-0.3817 h 0.1752 l 0.0981,0.3468 0.2523,0.004 0.0981,-0.3469 0.6913,0.0724 0.6899,-0.3601 0.5811,-0.7188 -0.0411,-0.2249 c 0.3141,-0.0245 0.6961,-0.5826 0.6961,-0.8736 v -0.2629 h -0.2629 l 0.5013,-0.4657 0.1256,-1.109 0.3365,-0.002 0.0659,-0.7915 -0.1962,-0.5064 -0.7324,-0.2349 0.3655,-0.4467 -0.2122,-0.413 0.0964,-0.0594 v -0.2627 c -0.7791,-0.065 -1.396,-1.9333 -2.3651,-2.014 v -0.3504 c 0,-0.1962 0.0695,-0.192 0.1752,-0.3501 l -0.0724,-0.3542 0.3354,0.004 0.3781,-0.4975 0.4092,0.0629 c -0.0103,-0.5052 -0.0472,-0.3947 -0.504,-0.462 -0.2228,-0.0328 -0.6606,-0.2417 -0.7215,-0.2417 h -0.3504 l -0.0983,0.3468 c -0.8364,-0.0153 -0.2914,-0.6706 -1.4784,-0.6972 l -0.323,-0.6707 c 0.2568,0.016 0.2615,0.0576 0.4982,0.0576 h 0.2629 v -0.5253 l 0.4257,-0.1982 c 0.0225,-0.4373 0.0774,-0.4919 0.5377,-0.5023 l 0.3439,0.2748 -0.1004,0.7732 0.1944,0.003 -0.0641,0.4423 0.2396,-0.004 c 0.0422,-0.3885 0.4547,-0.7005 0.8757,-0.7005 h 0.0877 c 0.1359,0 0.9212,0.369 1.0512,0.4375 v 0.7883 c 0.1938,0.1025 0.4272,0.2626 0.7008,0.2626 h 0.3504 l 0.4851,0.5658 -0.091,0.004 -0.2629,0.2627 c 0.4425,0.0768 0.657,0.4245 0.657,0.832 v 0.3501 l 0.2645,0.4372 0.5196,-0.1078 0.1082,-0.2355 0.6819,-0.1087 0.003,-0.5105 c 0,-0.6914 -0.8258,-0.9847 -0.9637,-1.5762 l -1.3529,-0.9404 -0.1495,-0.458 0.4512,-0.003 0.2792,-0.4893 0.0712,0.0514 c -0.0402,-0.1512 -0.3504,-0.6824 -0.3504,-0.7007 0,-0.1853 0.0316,-0.1153 0.0877,-0.3501 h 0.2627 l 0.0771,-0.6149 c 0.5714,0.0485 0.3279,0.3522 0.7114,0.3522 h 0.5256 c 0.1599,-0.442 0.3814,-0.1746 0.4364,-0.8772 0.0381,-0.4833 0.0892,-0.6703 0.0892,-1.2246 v -1.4887 c 0,-0.3797 -1.294,-1.3797 -1.3141,-2.2767 0.8964,0.6 3.272,3.9126 3.5914,4.0281 l -0.1761,-0.3495 0.4435,0.0635 c -0.1327,-0.5259 -1.4061,-0.8391 -1.4061,-1.5529 v -0.2626 l 0.2722,-0.0396 c -0.1968,-0.1158 -1.5529,-1.3641 -1.7851,-1.6004 -0.2609,-0.2656 -0.1625,-0.2922 -0.3764,-0.4993 -0.208,-0.2015 -0.322,-0.1844 -0.4692,-0.3191 -0.1956,-0.1793 -0.7164,-0.5649 -0.7947,-0.7817 -0.2878,0.2077 -0.047,0.3551 0.2626,0.4378 l -0.1707,0.1008 -0.005,0.1619 0.0715,-0.0553 0.3433,0.4432 c -0.766,-0.4199 -1.2733,-1.1759 -2.4294,-1.1759 l 0.0984,0.3469 -0.762,-0.4834 0.1507,0.3011 c -0.6124,-0.055 -0.1344,-0.4639 -0.8899,-0.5144 -0.7049,-0.0473 -0.5554,-0.1749 -0.2614,-0.6136 0,-0.65 0.1749,-0.5761 0.1749,-0.9632 v -0.613 c 0.1964,-0.0458 0.2015,-0.0875 0.4381,-0.0875 h 0.5256 c 0.374,0 0.4257,0.2068 0.7717,0.2095 0.2334,0.001 0.5283,0.005 0.8051,0.0532 l 1.3174,0.1545 -0.004,0.2833 1.4007,0.0993 -0.7014,-0.4473 0.002,-0.4402 -0.1879,-0.252 c 0.1161,3e-4 0.2098,0.0112 0.2863,0.0286 -0.9676,-0.9309 -1.9759,-1.819 -3.0221,-2.6619 -0.0189,-0.003 -0.0375,-0.004 -0.0546,-0.004 -0.2668,0 -0.3203,0.0398 -0.5256,0.0877 -1.1836,-0.6263 -2.7485,-1.1106 -4.0257,-1.6675 -0.3785,-0.1651 -0.7779,-0.0145 -1.2211,-0.1802 -0.3983,-0.1492 -0.5315,-0.2334 -1.0409,-0.3607 -0.6198,-0.1551 -1.5144,-0.5401 -2.1212,-0.6813 v 0.1749 c -0.6509,-0.0541 -0.2648,-0.3203 -1.3168,-0.3475 -0.2254,-0.006 -1.1401,-0.2053 -1.3987,-0.2653 v 0.1749 l 0.3744,0.1197 -2.0256,-0.2136 -0.0133,0.0939 c -0.3282,-0.0461 -0.353,-0.1654 -0.7882,-0.1749 v 0.1749 c -0.4559,0 -1.1892,-0.0933 -1.3139,-0.4378 -0.8313,0 -0.7971,-0.312 -1.7147,-0.4748 -0.4621,-0.0821 -1.4899,-0.1935 -1.8767,-0.2257 v 0.1752 h -0.9637 l -3.3249,-0.3873 -0.4417,0.0369 c -0.715,0 -1.0736,0.3191 -1.5765,0 h 0.5256 l 0.0827,-0.2644 0.7206,-0.0795 -0.009,-0.174 -6.2236,-0.471 -0.6151,0.0257 v 0.1752 h 1.1387 v 0.1752 c -0.8858,0.0736 -1.6001,0.1794 -2.6286,0.1741 -0.5102,-0.002 -2.2321,0.1781 -1.7511,0.6139 l -2.1015,0.1843 -8e-4,0.1661 1.4142,0.1696 -2.6397,0.0428 -6e-4,0.2254 -0.0591,0.0662 -0.4674,-0.4157 c -0.0561,0.6854 -0.1912,0.0694 -0.5247,0.5247 l 0.6018,0.2062 c 0.0266,0.6612 0.8216,0.4066 1.588,0.4066 v 0.0877 l -0.9649,0.0751 0.002,0.1876 0.3468,0.0984 c -0.1081,0.4068 -0.5105,0.5347 -0.8724,0.7773 l -1.2403,-0.1661 0.0139,-0.0966 h 1.0512 l 0.4239,-0.6535 c -0.9371,-0.1191 -0.7043,-0.8199 -1.3877,-0.8352 l 0.107,-0.3454 c -0.2157,-0.0508 -0.2207,-0.0925 -0.4571,-0.0925 h -0.0877 c -0.9079,0 -0.8813,0.2503 -1.4016,0.5253 l 0.0517,0.523 1.0639,0.2682 0.0233,-0.0907 v 0.263 c -0.5013,-0.042 -1.0712,-0.2145 -1.5794,-0.2603 -0.9478,-0.0851 -0.8343,0.0851 -1.4864,0.0851 h -0.7008 l 0.3531,0.3465 -0.8792,0.021 c -0.0385,-0.0186 -1.4968,0.4207 -1.5762,0.4207 h -0.263 v -0.1752 l -1.9945,0.5921 c -0.2039,0.3882 -0.7614,0.4585 -1.4217,0.4585 l 0.6054,-0.2098 0.008,-0.1403 h -0.9635 l 0.0142,0.3474 -0.1049,0.004 0.1084,0.4325 -0.0449,-0.0886 -1.6524,0.4783 0.1915,0.4024 -0.8613,0.104 -0.0212,-0.1188 -0.523,0.1823 0.377,0.2045 -1.1625,0.0664 0.1353,-0.4511 -0.6609,0.0133 v -0.1752 l 0.4372,0.0907 0.3486,-0.1829 c 0.6107,0.2964 1.8782,-0.39 2.3677,-0.5208 -0.1199,-0.4485 -0.7214,-0.1619 -1.3141,-0.1749 -0.3601,0.241 -0.211,0.1412 -0.6645,0.2995 -0.4133,0.1442 -0.3607,0.3927 -0.4741,0.0506 l -1.3139,0.0195 0.4272,-0.2249 0.0107,-0.1447 c -0.4054,-0.0337 -0.4831,-0.263 -1.1387,-0.263 h -0.3504 l -0.1376,0.2863 -0.0376,-0.2863 -0.6047,0.4479 0.1678,-0.3596 z m -12.4257,14.8016 c -0.1143,0.2172 -0.2269,0.4346 -0.3377,0.6539 0.1625,-0.1755 0.2881,-0.3806 0.3377,-0.6539 z m 73.9063,51.5422 c 3.4569,-3.8249 6.2713,-8.2373 8.2721,-13.0666 l 0.1716,-0.4207 -0.1598,0.0452 0.1583,-0.455 0.0541,-0.9602 0.0511,-0.6969 -0.0762,-0.0458 -0.6588,1.045 0.0147,0.3181 -0.6222,1.0778 -0.377,1.0908 c -0.2074,0.1894 -0.6996,0.8922 -1,0.8922 -0.1356,0 -1.4891,-1.1941 -1.4891,-1.401 0,-0.0685 0.4518,-0.5589 0.5256,-0.613 l -0.1069,-0.3454 0.5395,-0.1953 c 0.0481,-0.5004 0.1805,-0.1675 0.1805,-0.5102 0,-0.156 -0.1312,-0.1436 -0.263,-0.1752 v 0.263 h -0.1749 v -0.1752 c -0.5654,0.0469 -1.429,0.1102 -1.489,-0.6131 l -0.5832,0.3554 0.0573,0.0825 h 0.3504 c -0.039,0.4688 -0.567,0.5858 -0.876,0.4378 l -1.2787,1.4305 -0.0351,0.4083 h -0.6131 c -0.0502,-0.1873 -0.3991,-0.613 -0.613,-0.613 -0.2892,0 -0.4934,0.1427 -0.5259,0.4378 l -0.6086,0.1049 c -0.06,0.65 -0.53,0.3416 -0.53,0.7708 v 0.3504 c -0.2485,0.0579 -0.1498,0.0875 -0.3504,0.0875 -0.024,0 -0.1602,-0.0603 -0.2627,-0.0875 -0.0579,0.2485 -0.0877,0.1498 -0.0877,0.3504 0,0.024 0.0605,0.1599 0.0877,0.2627 l -0.3066,0.3064 -0.0438,-0.5691 c -0.3495,0.0931 -0.7008,0.4323 -0.7008,0.8754 v 0.263 c -0.3707,0.0989 -1.1998,1.2258 -1.6642,1.2258 h -0.6133 c -0.1696,0.4204 -1.3384,0.5022 -1.7949,0.7454 -0.5001,0.2662 -1.0529,0.7019 -1.4461,0.9185 -0.1055,0.0774 -0.5256,0.6553 -0.5256,0.7879 v 0.3504 c -0.3885,0.1569 -0.2201,0.6869 -0.0875,0.9632 l -0.14,0.3634 -0.1407,-0.4464 -0.1574,-0.005 v 0.3501 l -0.1507,-0.1899 0.0313,2.3783 c -0.577,0.7791 -0.3468,1.5257 -1.4571,1.9275 v 0.2626 c 1.0742,0.2502 1.1097,0.0242 2.0657,-0.299 0.2955,-0.0998 0.7487,-0.3994 0.9434,-0.4582 0.2685,-0.081 0.8183,-0.0408 1.1791,-0.1344 0.2372,-0.0615 1.424,-0.7833 1.7777,-0.9378 0.7356,-0.3205 1.1235,-0.1784 1.9174,-0.7099 0.6896,0 0.8565,-0.2627 1.0512,-0.2627 h 0.4381 l 0.0984,0.3469 0.4981,-0.2875 -0.1944,0.5377 -0.4488,0.1823 0.0458,0.0919 0.5221,-0.1043 0.4106,-0.6148 0.1129,0.0594 -0.3861,0.8597 c 0.2591,-0.0204 0.4801,-0.0742 0.4801,0.2423 v 0.1752 c 0,0.3784 -0.1752,0.3527 -0.1752,0.6127 0,0.2269 0.0585,0.0901 0.0877,0.4379 l 0.4689,0.2106 z m 9.863,-17.5686 c 0.2426,-0.8228 0.4624,-1.6553 0.6589,-2.4971 -0.3575,-0.3994 -0.4399,-0.1022 -1.0666,-0.5164 -0.2759,-0.1823 -1.195,-0.5767 -1.6128,-0.5767 -0.0774,-0.2142 -0.1007,-0.2626 -0.4378,-0.2626 h -0.0878 c -0.2363,0 -0.2414,0.0416 -0.4378,0.0874 v 0.3504 h -0.4382 c -0.1004,0.3767 -0.3439,0.751 -0.7882,0.788 l -0.0833,-0.5262 -0.1141,0.009 -0.0928,-1.2323 -0.9347,-0.2691 -1.0527,0.3548 c 0.0895,0.6958 0.6402,0.3123 0.876,0.9632 h 0.876 v 0.1752 l -0.4423,-0.0645 c -0.0479,0.172 -0.0162,0.2394 -0.2585,0.2394 h -0.3504 v 0.1752 l 0.3471,0.0983 0.003,0.6899 0.5309,-0.2541 0.5161,0.0999 0.1026,0.3259 c 0.6892,0.0189 1.2701,0.3501 1.5658,0.7914 l 0.0248,1.0506 c -0.4756,0.0379 -0.4845,0.3812 -0.6378,0.7008 0.6012,0 0.4674,-0.1752 0.876,-0.1752 h 0.2626 l 0.294,0.5046 0.6697,0.021 c 0.2689,0 0.5253,-0.0812 0.5253,-0.3504 0,-0.1852 -0.0313,-0.1155 -0.0874,-0.3501 h 0.3504 c 0.0529,-0.1985 0.0842,-0.3504 0.3504,-0.3504 z m -81.9946,-33.1886 c 0,0.3351 -0.0269,0.0319 0.0644,0.2588 l -0.1394,0.9062 0.6006,-0.2893 c 0.007,-0.3247 0.3203,-1.2258 0,-1.2258 -0.1323,0 -0.5256,0.2441 -0.5256,0.3501 z m 70.6892,35.728 c 0.5362,-0.1247 1.9387,-1.0261 2.1898,-1.401 -1.1655,0 -1.3135,0.6869 -1.9271,0.7005 z m -2.1024,-23.2931 c 0,-0.5595 0.1752,-0.6665 0.1752,-1.226 v -1.0506 h -0.2629 c -0.3117,0 -0.5256,0.5941 -0.5256,0.8754 v 0.4381 c 0,0.3938 0.2946,0.8781 0.6133,0.9631 z m -6.482,1.1384 0.0951,0.1705 -0.5193,0.2088 -0.0136,0.2337 h -0.263 v 0.788 h 0.263 v 0.1752 h 0.7882 c 0.0963,-0.3608 0.3504,-0.7298 0.3504,-1.2258 0,-0.2021 -0.2449,-0.1708 -0.4378,-0.1752 v -0.4379 0.2627 z m -18.8327,9.5449 c 0,0.0466 0.299,1.094 0.3504,1.3135 h 0.3501 c 0.3356,0 0.7885,-0.3793 0.7885,-0.6127 v -0.6131 c 0,-0.4142 -0.1805,-0.6201 -0.5256,-0.7005 -0.009,-0.4118 -0.2827,-0.8411 -0.7008,-0.8757 v 0.2627 c 0,0.353 -0.0186,0.5143 -0.2626,0.613 z m 30.176,-26.1485 0.2183,0.7569 -0.4591,-0.0718 0.2848,0.2438 c -0.0562,0.2348 -0.0875,0.1651 -0.0875,0.3501 0,0.0416 0.5413,0.5932 0.6228,0.7155 l 0.3608,-0.3173 -0.6332,-0.3982 c 0.5052,0 0.9945,-0.007 1.1387,0.3503 h 0.3504 c 0.007,-0.3176 0.0384,-0.5252 0.3504,-0.5252 l 0.2918,-0.0246 -0.5548,-0.7637 h -0.1752 c -0.1329,0.4009 -1.7691,-0.7871 -2.17,-0.9105 z m -0.9153,24.4839 0.1046,0.5221 -0.434,0.2869 0.0623,0.0676 h -0.3504 v 0.1752 l -0.5853,-0.3867 c -0.0653,0.379 -0.4098,0.6145 -0.7285,0.6494 -0.0458,0.1964 -0.0875,0.2012 -0.0875,0.4378 v 0.3501 c 0.195,-0.052 0.2627,-0.0204 0.2627,-0.2626 0,-0.3017 0.1577,-0.5714 0.2629,-0.1752 l 0.3867,-0.1965 -0.018,-0.1055 0.4258,0.2009 -0.006,0.8019 0.3008,0.4091 0.3123,0.0287 0.0481,-0.1885 0.0396,0.3634 c 0.1658,-0.0443 0.3026,-0.0272 0.2627,-0.2626 l -0.1025,-0.6982 0.4517,0.4364 c 0.0239,-0.2748 0.0889,-0.312 0.0889,-0.6139 v -0.8757 h -0.1752 v -0.7005 z m -2.3692,-5.078 c 0,-0.3478 -0.0877,-0.7629 -0.2254,-1.001 -0.0996,-0.1722 -0.6148,-0.4003 -0.7383,-0.4003 l -0.3643,10e-4 0.1241,1.7487 -0.2748,-0.1861 0.1794,1.148 0.2862,0.2207 0.1371,0.0449 v -0.1751 h 0.1752 l -0.0995,0.6095 0.5882,0.3311 0.0369,-0.2402 0.6946,0.3605 -0.0922,-0.3569 0.5005,0.572 0.4792,0.2916 -0.006,-0.4293 -0.3681,-0.3347 0.1932,-0.0154 v -0.1752 c -0.0703,-0.0337 -0.7578,-0.2627 -0.7885,-0.2627 h -0.2627 c -0.2812,0.6967 -0.5256,-0.8154 -0.5256,-1.0508 v -0.2627 h 0.2627 c 0.0458,-0.1965 0.0877,-0.2015 0.0877,-0.4378 z m -6.9201,16.9005 v 0.3504 h -1.0512 c -0.2913,0 -0.2565,-0.1572 -0.2627,-0.4379 h -0.3504 c -0.3043,0 -0.1335,-0.1752 -0.4378,-0.1752 h -0.7886 l -0.4378,0.5256 c 0.0954,0.1814 -0.0526,0.2627 0.2626,0.2627 h 0.3504 v 0.2626 h 0.3504 c 0.1965,0 0.1924,0.0692 0.3504,0.1752 l 4.304,0.6261 -0.0118,-0.276 c 0.1321,0.1519 0.1879,0.3504 0.4379,0.3504 0.1211,0 0.5046,-0.5253 0,-0.5253 h -0.4379 v -0.2629 h -0.9634 c 0.0617,-0.7451 0.3371,-0.0296 0.7005,-0.5253 l -1.6645,-0.1723 2e-4,-0.1781 z m 9.3362,-5.9254 c -0.7829,-0.0127 -0.5374,0.5229 -0.8393,0.4963 l -1.4001,-0.1057 -10e-4,-0.1569 h -0.2629 c -0.1339,0 -0.876,0.5982 -0.876,0.9631 v 0.5253 c -0.3392,0.1229 -0.3504,0.4207 -0.3504,0.8757 -0.0641,0.096 -0.3504,0.5817 -0.3504,0.7005 v 0.4381 c 0.281,0.006 0.4381,-0.0286 0.4381,0.2627 v 0.1752 c 0,0.4697 -0.2626,0.4139 -0.2626,0.7005 v 0.1749 c 0,0.1693 0.0275,0.156 0.0874,0.2629 l 0.5097,-0.2109 0.0159,-0.5773 c 0,-0.4006 0.1584,-0.2624 0.1746,-0.7885 0.0139,-0.4414 -0.0986,-0.4875 0.351,-0.525 l -0.0579,0.5297 c 0.091,0.1761 0.2331,0.223 0.2331,0.4337 v 0.4375 l 0.8562,-0.309 -0.2346,-0.4842 c 0.0393,-0.1997 0.0792,-0.2535 0.0792,-0.5203 0,-0.0502 -0.3787,-0.6757 -0.4381,-0.7879 0.5037,-0.1345 0.7226,-0.6131 0.9637,-0.6131 h 0.2627 v -0.3501 h -0.4379 v 0.1749 l -0.8739,0.1037 -0.1087,0.3291 -0.419,0.005 c -0.0369,-0.4438 -0.2629,-0.3679 -0.2629,-0.7005 0,-0.2299 0.143,-0.2266 0.1752,-0.6128 l 2.0134,0.1084 0.494,-0.0398 z m 3.4526,-26.212 c -0.0216,-0.9794 -1.0314,-1.3526 -1.2261,-2.1893 l -0.4426,-0.0641 0.005,0.1516 -0.211,0.0124 0.3274,0.941 c 0.2635,0.0877 0.4966,0.8083 0.4966,0.9732 v 0.0874 c 0,0.3043 -0.1749,0.1339 -0.1749,0.4379 v 0.3504 l -0.5182,0.1932 -0.1149,-0.4523 -0.1554,-0.004 v 0.5253 l 0.0981,0.7865 -0.3608,0.002 v -0.1752 l -1.489,0.2635 0.0806,0.0801 -0.5255,0.5253 -0.0807,-0.081 c 0,0.5079 -0.0157,0.6021 -0.4381,0.7008 0.0313,0.3758 0.5075,1.0054 0.7885,0.8757 0,0.6429 0.099,0.8255 0.7005,0.8754 l -0.009,-1.4882 -0.3368,-0.1069 -0.005,-0.2437 h -0.3501 v -0.1752 h 0.2626 c 0.169,0 0.156,0.0277 0.2627,0.0877 v -0.2629 c 0.5247,-0.0116 0.8538,-0.3501 1.0512,-0.3501 h 0.1752 c 0.3527,0 0.3179,0.2082 0.2629,0.4378 l 0.6382,0.6021 0.0848,-0.0803 -0.0993,-0.611 0.252,0.002 -0.3161,-0.3948 0.9215,0.1723 0.008,-0.2151 h 0.1751 v 0.2627 h 0.2627 l -0.0907,-0.4373 c 0.1776,0.0626 0.6163,0.5235 0.6163,-6e-4 V 615.55 c 0,-0.1188 -0.4379,-0.839 -0.4379,-1.4887 l -0.3167,-0.3141 z m -21.0225,23.7308 -1.3142,-0.0874 c 0.1649,1.2837 1.4722,1.1073 1.5768,2.3644 l 0.7761,0.3717 0.1064,1.1159 c 0.8648,0.2334 0.9741,1.6361 1.3788,2.2941 0.2355,0.3826 0.3288,0.2514 0.5082,0.455 0.1527,0.174 0.1093,0.3486 0.3306,0.5454 0.4496,0.4 0.5755,0.3814 0.9294,0.9096 l 0.6158,-0.0635 0.3288,0.1814 c 0.247,-1.0095 0.3202,-1.5649 0.1063,-2.482 h -0.2626 c -0.3708,0 -0.0464,-0.1211 -0.4379,-0.2629 v -0.7005 h -0.5258 c -0.0455,-0.1962 -0.0875,-0.2012 -0.0875,-0.4379 v -0.2626 h 0.1752 l -0.1616,-0.4441 -0.3604,0.1046 -0.9723,-1.0568 -0.0627,0.0789 -0.0839,-0.4385 -0.2863,0.005 v 0.1752 h -0.1752 c -0.1158,-0.4975 -0.67,-0.9779 -1.0517,-1.2252 -0.4098,-0.2656 -0.3236,-0.1732 -0.5103,-0.6284 -0.2706,-0.6601 -0.3536,-0.0485 -0.54,-0.5109 z m -31.5498,17.2356 c 0.1462,-0.5359 -0.0393,-1.1513 0.366,-1.2982 v -0.8754 l 0.2565,0.1037 0.006,-1.5924 -0.5699,-1.0299 -0.1309,-0.021 -0.2777,0.2653 0.1176,0.6955 -0.414,0.1929 0.0452,0.0759 -0.2277,-0.2127 -0.1253,0.9088 -0.2567,9e-4 c -0.0577,0.691 -0.2213,0.0278 -0.6134,0.613 l -1.1354,0.2736 c -0.015,0.5224 -0.3126,0.3575 -0.3205,0.8612 -0.006,0.3534 0.182,0.7026 0.2236,0.9729 0.2677,1.7417 -0.5847,1.2716 -0.5194,1.7452 l 0.1037,0.8736 0.159,0.002 v 0.3504 c 0,1.0075 0.6836,0.7495 0.876,1.2258 l 1.2119,-0.3132 c 0.2783,-0.4479 0.5666,-1.9195 0.8139,-2.5653 0.1214,-0.317 0.3235,-0.9313 0.4113,-1.2527 z m 44.9516,-17.0604 c 0.4187,-0.009 0.4922,-0.0372 0.5256,-0.4378 l -0.9389,-0.4801 -0.0248,-0.2204 c 0,-0.3138 -0.434,-0.3758 -0.7005,-0.4378 l -0.6157,1.1894 -0.0851,-0.0511 v 0.3504 h -0.4381 l -0.4899,0.4071 c -0.0532,0.7274 -0.7912,1.2565 -1.6122,1.2565 l -0.1037,0.8737 -1.0485,-0.2045 c -0.1359,0.0437 -0.3371,0.1344 -0.3371,0.3817 v 0.8757 c 0,0.4441 0.3456,0.6603 0.2629,1.0509 h 0.3504 l -0.007,1.2261 0.7049,0.1022 c 0.0618,-0.005 0.1176,-0.127 0.3531,-0.1899 v 0.4378 l 0.8003,-0.2272 0.8556,0.1796 0.117,0.4813 0.7449,-0.3885 0.0224,0.2174 h 0.1752 c 0.14,-0.6006 0.3173,-1.0975 0.0875,-1.5761 l 0.8109,-0.6843 0.065,0.0712 v -0.613 c 0,-0.2671 0.1652,-0.7005 0.4382,-0.7005 h 0.4378 c -0.1362,-0.5841 -0.613,-0.4036 -0.613,-0.7005 0,-0.3297 0.0576,-0.1655 0.0874,-0.5253 h -0.1752 v -0.4379 c 0,-0.4706 0.0482,-0.3146 0.0878,-0.7882 h 0.4378 z m -56.6713,-37.1141 -0.003,-0.2777 h -0.1749 c 0.005,-0.2021 0.0555,-0.2627 0.2626,-0.2627 h 0.2627 c 0.2366,0 0.2417,0.042 0.4381,0.0878 l -0.0984,0.3468 z m -3.3187,0.0919 0.338,-0.0192 -0.2434,0.2059 -0.0192,0.4071 0.4369,0.0907 0.4665,-0.3164 1.6988,-0.4092 0.0562,0.2018 -0.9726,0.3232 -0.2739,0.1226 c -0.5339,-0.0127 -1.1082,0.107 -1.1493,0.6004 h 0.2627 v 0.2626 c -0.4984,0.2012 0.2088,0.3767 -0.5253,0.4379 -0.057,-0.1572 -0.0638,-0.2627 -0.3504,-0.2627 -0.3664,0 -0.6739,0.6775 -0.8033,1.0358 -0.0597,0.1646 -0.7661,0.6807 -0.9487,0.8031 l -0.7853,-0.1111 c -0.1897,0.486 -0.7551,0.465 -1.1419,0.7241 l -0.5214,-0.1087 0.2068,-0.4931 -0.3005,0.0715 -0.0798,-0.0609 0.7029,-0.8742 0.1498,0.0851 -0.2532,0.8526 c 0.5469,-0.283 0.5723,-0.6106 1.2341,-0.6106 0.3096,-0.4624 0.3075,-0.6745 0.7672,-1.0722 0.2828,-0.2443 0.9121,-0.582 0.9847,-0.8544 l -0.4035,-0.0825 z m 43.0842,0.8565 h 0.1752 l 0.4503,1.045 -0.2751,0.006 v 0.2626 h 0.2629 l -0.1985,0.4272 -0.5897,0.1862 -3e-4,0.4375 -1.0485,0.1123 c 0.4889,-0.4518 1.2237,-0.5797 1.2237,-1.6885 z m -36.5271,5.7794 h 0.5256 v 0.1752 l -0.6896,0.2065 -0.0109,0.1439 0.3468,0.0981 -0.5244,0.6231 0.0898,0.0668 h -0.3503 c 0.3034,0.4139 2.7154,1.4284 2.7154,1.7514 v 0.3504 c 0,0.4103 -0.7484,0.613 -1.2264,0.613 h -0.876 c -0.4937,0 -0.7611,-0.0482 -0.9634,-0.3504 -0.6013,0 -0.4674,-0.1752 -0.876,-0.1752 h -0.4379 c -0.4207,0 -1.4512,0.7005 -1.489,0.7005 h -0.6134 c -0.7229,0 -0.912,-0.3161 -1.1386,-0.7879 l 0.4426,-0.7496 0.19,-0.7362 c 0.8848,-0.2136 0.5498,-1.1898 1.4698,-1.404 l 0.0981,0.3469 1.0405,0.003 -0.6659,0.4367 0.0526,0.0889 h 0.5256 c -0.009,0.3859 -0.2367,0.8246 0.2966,0.481 0.3081,-0.1985 0.5735,-0.2228 0.6671,-0.481 h 0.5256 v -0.1752 h -0.6133 l -0.3253,-0.3013 c 0.0688,-0.3126 1.1247,-0.7496 1.5516,-0.7496 h 0.2627 z m 5.1682,0.7883 c 0.8249,-0.0183 1.1309,-0.9753 1.9272,-0.9632 l 0.8754,0.0334 c 0.3119,-0.0289 0.1681,1.0172 0.6136,1.0172 0.1852,0 0.1155,-0.0313 0.3504,-0.0874 l 0.0984,0.3468 -0.455,-0.1583 -1.0423,-0.1232 c -0.232,-0.004 -0.1085,0.1087 -0.4405,0.1973 v 0.2627 l 0.1882,0.0481 -0.4512,0.0396 v 0.1752 c 0.3655,0.0399 0.5386,0.468 0.6134,0.788 0.5158,0.0428 0.1825,0.1752 0.5255,0.1752 h 0.3504 c -0.0325,1.4538 0.4379,1.0804 0.4379,2.014 h 0.3504 l -0.0641,0.4423 0.4027,0.2738 c 0.0118,0.6692 0.187,0.7933 0.187,1.1227 v 0.263 l -0.6459,0.1639 0.0325,0.0987 h -1.0509 c -0.2009,-0.7516 -1.4015,-0.4298 -1.4015,-1.3135 v -0.0878 c 0,-0.2103 0.1418,-0.2573 0.2626,-0.4378 v -0.7005 l 0.3454,-0.1067 -0.4216,-0.1914 -1.2772,-1.4105 -0.1578,-0.8278 -0.5625,-0.3702 0.1628,-0.0215 z m -6.9742,32.9123 c 0.8621,0.1345 0.1831,0.156 0.7551,0.5389 v -0.1752 h 0.2627 v 0.1752 l -0.4335,0.1052 -0.4768,1.1921 0.2228,0.0644 -0.8917,-0.0227 0.002,0.1495 h -0.1752 v -0.3501 h -0.1752 l 0.0892,-1.3103 z"
         style="fill:#009ee0;fill-rule:evenodd"
         id="path3703" />
      <path
         d="m 338.0726,505.7464 c 68.0936,0 129.3559,29.3001 171.8702,75.9753 H 505.1333 453.0949 132.552 v -3.8591 h 315.877 c -39.8724,-32.1545 -90.5711,-51.4199 -145.7691,-51.4199 -35.4072,0 -68.9604,7.9353 -98.9988,22.1023 37.9494,-26.9509 84.3329,-42.7986 134.4115,-42.7986 z"
         style="fill:#00378b;fill-rule:evenodd"
         id="path3705" />
      <path
         d="m 230.4108,753.7963 c -68.0936,0 -129.356,-29.3 -171.8703,-75.9753 h 4.8096 52.0384 320.5429 v 3.8591 H 120.0543 c 39.8724,32.1545 90.5712,51.4199 145.7691,51.4199 35.4073,0 68.9604,-7.9353 98.9989,-22.1023 -37.9494,26.951 -84.333,42.7986 -134.4115,42.7986 z"
         style="fill:#00378b;fill-rule:evenodd"
         id="path3707" />
      <path
         d="m 143.7282,555.9667 h -7.7624 v 3.9314 h 7.7624 c 0.5984,0 1.0054,-0.0862 1.2257,-0.2585 0.2202,-0.1724 0.3305,-0.4791 0.3305,-0.9196 v -1.5897 c 0,-0.4311 -0.1103,-0.7327 -0.3305,-0.9051 -0.2203,-0.1723 -0.6273,-0.2585 -1.2257,-0.2585 z m -11.1578,12.2635 v -14.8303 h 12.6851 c 1.178,0 2.0304,0.2251 2.5619,0.6801 0.527,0.4549 0.7903,1.1874 0.7903,2.1931 v 3.3137 c 0,1.0009 -0.2633,1.7286 -0.7903,2.1836 -0.5315,0.4549 -1.3839,0.68 -2.5619,0.68 h -9.2897 v 5.7798 z m 32.4766,0 v -14.8303 h 3.4526 v 12.0385 h 11.124 v 2.7918 z m 34.5549,-5.9187 h 6.4933 l -3.1989,-6.0335 z m -6.6371,5.9187 8.3897,-14.8303 h 3.3231 l 8.5048,14.8303 h -3.8741 l -1.7813,-3.2371 h -9.4 l -1.724,3.2371 z m 36.0822,0 v -14.8303 h 2.3562 l 10.4439,8.7392 c 0.3544,0.292 0.6656,0.565 0.9386,0.8238 0.273,0.2585 0.517,0.5219 0.7421,0.79 -0.0527,-0.8334 -0.091,-1.4221 -0.11,-1.7671 -0.0192,-0.3447 -0.0289,-0.6129 -0.0289,-0.7997 v -7.7862 h 3.0983 v 14.8303 h -2.3559 l -10.8893,-9.1607 c -0.2636,-0.2344 -0.4932,-0.4453 -0.6897,-0.6321 -0.1964,-0.1865 -0.3784,-0.3782 -0.5459,-0.5746 0.0431,0.455 0.0813,0.8906 0.1054,1.2977 0.0239,0.4071 0.0335,0.7566 0.0335,1.0585 v 8.0112 z m 36.1253,0 v -14.8303 h 15.1849 v 2.5237 h -11.7323 v 3.3137 h 6.848 v 2.5234 h -6.848 v 3.6777 h 11.8712 v 2.7918 z m 39.7168,-12.1773 v 12.1773 h -3.4526 v -12.1773 h -6.8046 v -2.653 h 17.0907 v 2.653 z"
         style="fill:#1b1918;fill-rule:evenodd"
         id="path3709" />
      <path
         d="m 222.3652,706.1445 v -14.8303 h 15.1849 v 2.5237 h -11.7323 v 3.3137 h 6.8479 v 2.5234 h -6.8479 v 3.6777 h 11.8712 v 2.7918 z m 30.5515,0 7.0297,-7.6186 -7.1541,-7.2117 h 4.5731 l 4.7407,5.0375 4.5059,-5.0375 h 3.97 l -6.4696,6.8191 7.9971,8.0112 h -4.6834 l -5.4303,-5.7512 -5.0088,5.7512 z m 45.1664,-12.2635 h -7.7624 v 3.9314 h 7.7624 c 0.5984,0 1.0055,-0.0862 1.2257,-0.2585 0.2203,-0.1724 0.3305,-0.4791 0.3305,-0.9196 v -1.5897 c 0,-0.4311 -0.1102,-0.7327 -0.3305,-0.9051 -0.2202,-0.1723 -0.6273,-0.2585 -1.2257,-0.2585 z m -11.1577,12.2635 v -14.8303 h 12.685 c 1.1781,0 2.0305,0.2251 2.562,0.6801 0.5269,0.4549 0.7903,1.1874 0.7903,2.1931 v 3.3137 c 0,1.0009 -0.2634,1.7286 -0.7903,2.1836 -0.5315,0.4549 -1.3839,0.68 -2.562,0.68 h -9.2897 v 5.7798 z m 43.6343,-12.2635 h -7.7624 v 4.1278 h 7.7624 c 0.5983,0 1.0054,-0.0864 1.2257,-0.2588 0.2202,-0.1723 0.3305,-0.4788 0.3305,-0.9193 v -1.7861 c 0,-0.4311 -0.1103,-0.7327 -0.3305,-0.9051 -0.2203,-0.1723 -0.6274,-0.2585 -1.2257,-0.2585 z m -11.1578,12.2635 v -14.8303 h 12.6851 c 1.178,0 2.0304,0.2251 2.5619,0.6801 0.527,0.4549 0.7903,1.1874 0.7903,2.1931 v 3.4861 c 0,1.0009 -0.2633,1.7285 -0.7903,2.1835 -0.5315,0.4598 -1.3839,0.6897 -2.5619,0.6897 h -1.9344 l 6.8428,5.5978 h -4.9515 l -5.976,-5.5978 h -3.2706 v 5.5978 z m 34.162,0 v -14.8303 h 15.185 v 2.5237 h -11.7324 v 3.3137 h 6.848 v 2.5234 h -6.848 v 3.6777 h 11.8712 v 2.7918 z m 45.6597,-12.2349 h -9.7067 v 3.1845 h 9.2421 c 1.451,0 2.4327,0.2489 2.9403,0.7421 0.5123,0.498 0.7662,1.4176 0.7662,2.768 v 2.035 c 0,1.3456 -0.2539,2.2652 -0.7662,2.7632 -0.5076,0.4933 -1.4893,0.7421 -2.9403,0.7421 h -9.1559 c -1.4508,0 -2.4325,-0.2488 -2.9401,-0.7421 -0.5123,-0.498 -0.7662,-1.4176 -0.7662,-2.7632 v -0.407 l 3.0455,-0.6322 v 1.7527 h 10.4774 v -3.3806 h -9.2418 c -1.4414,0 -2.4134,-0.2492 -2.9211,-0.7424 -0.5028,-0.498 -0.7565,-1.4173 -0.7565,-2.7677 v -1.6376 c 0,-1.3504 0.2537,-2.27 0.7565,-2.7681 0.5077,-0.4932 1.4797,-0.7421 2.9211,-0.7421 h 8.4135 c 1.3935,0 2.3559,0.2396 2.8829,0.7135 0.5315,0.4788 0.7948,1.3263 0.7948,2.5427 v 0.3064 l -3.0455,0.7183 z m 34.3678,0 h -9.7067 v 3.1845 h 9.2421 c 1.451,0 2.4327,0.2489 2.9403,0.7421 0.5123,0.498 0.7663,1.4176 0.7663,2.768 v 2.035 c 0,1.3456 -0.254,2.2652 -0.7663,2.7632 -0.5076,0.4933 -1.4893,0.7421 -2.9403,0.7421 h -9.1559 c -1.4508,0 -2.4324,-0.2488 -2.9401,-0.7421 -0.5122,-0.498 -0.7662,-1.4176 -0.7662,-2.7632 v -0.407 l 3.0455,-0.6322 v 1.7527 h 10.4774 v -3.3806 h -9.2418 c -1.4414,0 -2.4134,-0.2492 -2.9211,-0.7424 -0.5028,-0.498 -0.7565,-1.4173 -0.7565,-2.7677 v -1.6376 c 0,-1.3504 0.2537,-2.27 0.7565,-2.7681 0.5077,-0.4932 1.4797,-0.7421 2.9211,-0.7421 h 8.4135 c 1.3936,0 2.3559,0.2396 2.8829,0.7135 0.5315,0.4788 0.7948,1.3263 0.7948,2.5427 v 0.3064 l -3.0455,0.7183 z"
         style="fill:#1b1918;fill-rule:evenodd"
         id="path3711" />
      <path
         d="m 140.595,606.882 c 0.6236,-3.6912 0.6154,-6.3226 -0.0244,-7.8947 -0.64,-1.5724 -2.1415,-2.3584 -4.5039,-2.3584 l 0.4331,-2.5631 h 49.4935 c 4.4096,0 7.8435,0.0683 10.3008,0.2049 2.4576,0.1366 4.8325,0.5298 7.1246,1.1792 2.2918,0.6494 4.1346,1.8627 5.5273,3.6397 1.3929,1.7773 1.8757,3.9305 1.4482,6.4596 -1.1545,6.8352 -7.958,12.6111 -20.4094,17.3276 -6.3105,2.3922 -16.0359,4.9555 -29.1765,7.6896 l -3.0659,18.1479 c -1.1549,6.8355 0.6695,10.2529 5.4731,10.2529 l -0.4331,2.5634 h -37.6807 l 0.4329,-2.5634 c 2.3623,0 4.1266,-0.7687 5.292,-2.3068 1.1653,-1.5378 2.0656,-4.1868 2.7008,-7.9461 z m 21.4779,16.1998 c 7.3187,-1.3672 12.986,-3.4518 17.0036,-6.2544 3.3063,-2.3241 5.2078,-4.9555 5.7044,-7.8948 0.4618,-2.7343 -0.3367,-4.7676 -2.395,-6.1007 -2.0585,-1.3328 -4.7809,-1.9993 -8.1672,-1.9993 -3.7012,0 -6.2186,0.6837 -7.5517,2.0506 -0.961,1.0253 -1.7244,3.2128 -2.2901,6.5619 z m 89.9509,-29.016 -0.3152,2.5631 c -2.4412,0 -4.2639,0.769 -5.4689,2.3071 -1.2047,1.5378 -2.1246,4.1865 -2.7598,7.946 l -6.8944,40.807 -0.2427,1.4355 c -0.2656,1.5721 -0.0402,2.8023 0.6755,3.691 1.1197,1.2988 3.4512,1.9482 6.9948,1.9482 6.4573,0 12.8512,-2.1874 19.1815,-6.5622 5.6191,-3.8959 10.2075,-8.6808 13.7647,-14.354 l 2.2411,0.7177 -14.637,28.6058 c -0.2341,-0.4785 -0.7582,-0.8713 -1.5729,-1.1789 -0.8141,-0.3076 -2.1266,-0.4615 -3.9379,-0.4615 h -2.0081 -53.5093 l 0.4329,-2.5634 c 2.4412,0 4.2641,-0.7687 5.4691,-2.3068 1.2048,-1.5378 2.1246,-4.1868 2.7598,-7.9461 l 7.0677,-41.8323 c 0.612,-3.6226 0.5813,-6.2373 -0.0922,-7.8437 -0.6738,-1.6061 -2.2311,-2.4094 -4.6723,-2.4094 l 0.4331,-2.5631 z m 24.0381,67.4648 0.4331,-2.5634 c 2.4415,0 4.2642,-0.7687 5.4692,-2.3068 1.2047,-1.5378 2.1248,-4.1868 2.7598,-7.9461 l 7.0676,-41.8323 c 0.612,-3.6226 0.5814,-6.2373 -0.0921,-7.8437 -0.6738,-1.6061 -2.2309,-2.4094 -4.6724,-2.4094 l 0.4332,-2.5631 h 53.6275 2.4806 c 1.8902,0 3.4203,-0.0856 4.591,-0.2563 1.1707,-0.1709 2.2136,-0.6324 3.1277,-1.3841 l 2.0229,23.6843 -2.7023,0.6151 c -0.8223,-4.9212 -3.3171,-8.8005 -7.484,-11.6371 -4.167,-2.8366 -9.2424,-4.2551 -15.2278,-4.2551 -4.7248,0 -7.9171,0.7178 -9.5771,2.1532 -1.2875,1.0936 -2.2314,3.4178 -2.8318,6.9721 l -0.485,2.871 -0.5545,3.2808 h 3.7803 2.9531 c 4.2523,0 7.2295,-0.3759 8.9317,-1.1279 2.7162,-1.162 4.3801,-3.5544 4.9921,-7.1771 l 2.4146,-0.3075 0.7974,26.0427 -2.397,0.205 c -0.4431,-1.5721 -1.0165,-2.9563 -1.7201,-4.1525 -0.7035,-1.1962 -1.6322,-2.3412 -2.7859,-3.4348 -1.5015,-1.3671 -3.2023,-2.2555 -5.1015,-2.6657 -1.8995,-0.4101 -4.2664,-0.6151 -7.1016,-0.6151 h -2.717 -3.1893 l -3.3432,19.7881 c -0.82,4.8532 -0.4682,8.1343 1.0542,9.843 1.3207,1.5038 4.1072,2.2558 8.3597,2.2558 7.166,0 13.7268,-1.7773 19.6824,-5.3316 5.4249,-3.2125 10.2937,-7.7925 14.606,-13.739 l 2.342,0.8201 -14.5443,26.6578 c -0.6604,-0.7517 -1.5276,-1.2132 -2.601,-1.3841 -1.0738,-0.171 -2.4767,-0.2563 -4.2092,-0.2563 z m 152.104,-14.4567 c 1.161,1.9823 2.0491,3.4861 2.6631,4.5114 1.1616,1.9822 2.1396,3.4177 2.9344,4.3061 1.4553,1.6407 3.369,2.666 5.7408,3.0758 l -0.4332,2.5634 h -43.1147 l 0.4332,-2.5634 c 1.3388,0 2.6342,-0.3245 3.8854,-0.9739 1.2518,-0.6495 1.9758,-1.5551 2.1719,-2.717 0.2078,-1.2303 -0.0501,-2.7341 -0.7733,-4.5114 -0.3339,-0.8203 -1.0423,-2.2215 -2.1248,-4.2038 l -7.1946,-14.0465 -8.8719,10.5605 c -3.1666,3.8279 -4.7951,5.7759 -4.8852,5.8442 -2.0257,2.666 -3.1709,4.7849 -3.4365,6.357 -0.208,1.2305 0.0553,2.1188 0.7901,2.6657 0.7344,0.5468 1.8382,0.8886 3.3111,1.0252 l -0.4331,2.5634 H 352.133 l 0.4331,-2.5634 c 3.2077,-0.3415 6.3641,-1.777 9.4686,-4.3061 1.5469,-1.2305 3.3199,-2.8709 5.3201,-4.9215 1.2316,-1.2302 2.916,-3.0418 5.0524,-5.434 l 16.2298,-18.4555 -7.7474,-14.9695 c -2.1747,-4.3744 -3.8831,-7.3137 -5.1253,-8.8175 -2.5285,-3.2127 -5.5298,-5.0241 -9.0042,-5.4342 l 0.4331,-2.5631 h 42.7603 l -0.4331,2.5631 c -1.3385,0 -2.5464,0.2735 -3.623,0.8203 -1.0771,0.5468 -1.7078,1.3671 -1.8926,2.4608 -0.127,0.7517 0.0995,1.743 0.6789,2.9732 0.2899,0.6154 0.5856,1.1962 0.8866,1.743 l 5.8737,11.3809 6.7643,-7.1771 c 2.1807,-2.1872 3.8027,-3.9815 4.8663,-5.3827 1.0638,-1.4014 1.6591,-2.4778 1.7861,-3.2298 0.1848,-1.0936 -0.2251,-1.9309 -1.2294,-2.5121 -1.0043,-0.5808 -2.2431,-0.9396 -3.716,-1.0765 l 0.4329,-2.5631 h 26.1051 l -0.4331,2.5631 c -3.1289,0.3418 -5.895,1.3331 -8.2985,2.9735 -1.6809,1.0936 -3.8214,3.0416 -6.4207,5.8442 l -9.2404,9.9453 -6.5625,7.3823 z"
         style="fill:#e30016;fill-rule:evenodd"
         id="path3713" />
    </g>
  </g>
</svg>
