<?xml version="1.0" encoding="utf-8"?>
<!-- Generator: Adobe Illustrator 20.1.0, SVG Export Plug-In . SVG Version: 6.00 Build 0)  -->
<svg version="1.1"
	 id="svg3888" xmlns:cc="http://creativecommons.org/ns#" xmlns:dc="http://purl.org/dc/elements/1.1/" xmlns:rdf="http://www.w3.org/1999/02/22-rdf-syntax-ns#" xmlns:svg="http://www.w3.org/2000/svg"
	 xmlns="http://www.w3.org/2000/svg" xmlns:xlink="http://www.w3.org/1999/xlink" x="0px" y="0px" viewBox="0 0 357.1 186"
	 style="enable-background:new 0 0 357.1 186;" xml:space="preserve">
<style type="text/css">
	.st0{fill:#009EE0;}
	.st1{fill:#00378B;}
	.st2{fill:#1B1918;}
	.st3{fill:#E30016;}
</style>
<g id="layer1" transform="translate(-11.102232,-14.720777)">
	<g id="g3798" transform="matrix(0.26458333,0,0,0.26458333,-4.3866081,-119.09129)">
		<path id="path3703" class="st0" d="M1222.8,759.5l0.2,0.7c0.5-0.3,0.7-0.5,1.5-0.5c0.6,0,0.6,0.1,1,0.1l1.5,0.1
			c0.5,0,0.4-0.2,1.2-0.2v-0.5l-1.1,0l0.5-1.3L1222.8,759.5z M1274.9,733c18,0,35.2,3.6,50.9,10.1c16.3,6.8,31,16.6,43.2,28.9
			c12.3,12.3,22.2,26.9,28.9,43.2c6.5,15.7,10.1,32.9,10.1,50.9c0,18-3.6,35.2-10.1,50.9c-6.8,16.3-16.6,31-28.9,43.2
			c-12.3,12.3-26.9,22.2-43.2,28.9c-15.7,6.5-32.9,10.1-50.9,10.1s-35.2-3.6-50.9-10.1c-16.3-6.8-31-16.6-43.2-28.9
			c-12.3-12.3-22.2-26.9-28.9-43.2c-6.5-15.7-10.1-32.9-10.1-50.9c0-18,3.6-35.2,10.1-50.9c6.8-16.3,16.6-31,28.9-43.2
			c12.3-12.3,26.9-22.2,43.2-28.9C1239.7,736.6,1256.9,733,1274.9,733L1274.9,733z M1196.2,764.4c-4.3,3.3-8.4,6.9-12.2,10.8
			c-2.9,2.9-5.6,5.9-8.2,9c0.1,0,0.1,0,0.2,0l-0.9,0.8l-0.7,0.9l0.1,0.5l-1.3,2l-0.7,0l-0.1,0c-4,5.2-7.5,10.8-10.7,16.6l0.6-0.5
			c3.6,0,4.1-0.8,6-2.4l1.5,0.5l0,1.2l0.1,0.7l2.4,2.3l-0.2,0.2h1.5v0.7h1.2c0.1,1.7,1.2,0.2,1.2,3.5h-0.5v0.7h-1.2v0.5h-2
			c-1,0-1.4,0.3-1.5,1.2c1.5,0.1,1.5,1.2,3,1.2c1.6,0-0.3-2.2,1.5-2.2h0.7l0.6-1.1l0.1-0.9h0.7v-1.2h-0.5v-0.7c0-0.6,0.2-0.5,0.5-1
			l1.2,0.3l0.6,1.1l0.5-1.4l-3.2-1.6l0.2-0.9l-1.4,0c-0.6-0.4-1.5-1.1-1.5-2v-1c-1.2-0.1-1.4-0.3-1.5-1.5h0.5v-1.2l1.5-0.3l0,1h0.7
			v0.5l0.3-0.7l0.5,0l0.5,2.2l1.2,0l0.3,1.2l0.1-0.3l3.4,1.6c-0.2,0.7-0.3,0.7-0.3,1.4v1.2c0,1.2,0.9,0.1,0.2,1.5l2.1,2.4
			c0,0.4-0.1,0.4-0.1,1.1c0,0.3,0.3,0.4,0.5,0.5c-0.6,1.3,1,1.4,2.2,1.7l-0.3-1.7l0.8,0v-0.5h-0.5V812l1.5,0.3l0-0.8l0.7,0.3
			c-0.3-1.1-1.1-1.8-2.5-1.8c0.2-0.7,0.2-0.4,0.2-1c0-0.5-0.3-0.8-0.5-1.5h1c0.5,0,0.4,0.1,0.7,0.2v-1.5l3-0.3l1.4,0.6l-0.9,0.4
			l0,1.7h0.7l0.4,1.3l-0.9,0.2l0,1l1.2,0.3l0,1.2h0.5v0.5l-0.5,0.1l1.3,0.1v0.5h1c0.7,0,0.6,0.2,0.7,0.7h2.2v-1.2
			c2.2,0,2.3,1.2,3.7,1.2h1.2c0.8,0,0.7-0.3,0.7-1l0.7-0.2l1.5,0.3l0.9-0.6c-0.2,1.1-0.4,0.5-0.4,1.3v2l0.1,3
			c-0.8,0.3-1.1,2.1-1.5,3c-0.6,1.2-1.5,1.9-1.7,2.7l-3.2-0.3l-0.5-0.7c-2.9,0.7-1.4,0.1-3.5,1.5l-6.4-1.5l-0.1,0.3l-0.3-1l-1.9,0
			c-1.2,0-0.8-1.5-2.2-1.5c-2.5,0-3,0.8-4,2.2v2.5c-0.4,0.3-0.4,0.5-1,0.5c-0.3,0-2.2-1-2.5-1.2h-1c-1.5-1-2.2-0.3-2.2-2.7l-1.8-0.5
			l0.1-0.3h-0.7l-3.2-0.1c0-1.8-0.2-1.2-1.5-1.1c0-1.5,1.2-1.1,1.7-3.5c-0.2-0.3-0.5-0.8-0.5-1.2c0-0.6,0.6-0.1,0.7-1.5l-0.7,0.3
			l0-0.8h-1c-1,0-0.8,1-1.7,1c-1.9,0-2-0.4-3.7,0.7c-2.4,0-4.6,0.5-5.8,1.8c-6,14.8-9.3,31.1-9.3,48.1c0,3.8,0.2,7.5,0.5,11.1
			c1.7,0,1.4,0.7,2.9,0.7l2-1.5l1.2,0l0.8-1.2l2.2-0.1c1.6,0,1.7,1.2,2.7,1.7v1.5l0.9,1.2l0.9,0.1c0.9,0,0.4-0.5,1.2-0.5h0.7
			c0.7,0,0.7,0.1,1.2,0.2c0.1,1.1,0.1,1,1.2,1c0.1,0.6,0.2,0.6,0.2,1.2v3.2l-0.5,5c1.5,3.5,2.2,4.2,4.4,7c1.4,1.8,2.1,6,3.6,8.1
			l-0.5,0.7c0.3,0.5,1.8,4.2,1.8,4.5v1.5c0,0.7-0.2,0.6-0.7,0.7l-0.6,5.2l0.1,0.8c0,0.9,0.5,0.1,0.5,2l0.7,0.5l0,1.2
			c1,0.7,5.9,7.5,6,9.4l0.3-0.2l0.9,1.5l2.2,3.2l-0.2,0.1c1.1,0.3,2.4,1.2,2.5,2.5l2.6,1.6c0.3,2.4,3.8,1.1,3.8,4.6
			c1.5-0.6,0.9,0.7,2,0.7c0.4,0,0.9-0.3,1.2-0.5c6.3,4.2,8.3,1.4,11.4-3.2c0-1.6,0.6-2.8-0.5-3.2c0.1-1.5,1.6-1.7,3.2-1.7l0.8-1.2
			l0-2.5l0-0.7h-0.7c0-1.3,0-2.4-1-2.7v-1.5h0.7c0.1-1.5,0.9-1.2,2-2.4c0.8-0.8,1.4-1.4,2.5-2c1.7-0.9,4.4-2.3,4.4-4.5v-0.2
			c0-0.6-0.2-0.5-0.5-1l-0.3-7.2l-1.6-1.1c-0.1-1.8-0.6-2.2-0.6-4.4c0-2.8-1-2.1-1-3.7v-0.7c0-0.9,1.3-2.9,1.6-4.1
			c0.5-1.4,1.1-2.7,2.6-2.9c0.5-2,2.5-4.3,3.9-5.5c1.5-1.3,3.1-3.4,4.6-4.6c0.6-0.5,1.6-1.8,2.3-2.4c1-0.9,1-1.8,1.9-2.8
			c1.1-1.3,2-6,3-6.2c0-1.5,0.7-1.2,0.7-3v-1.5h0.5v-3h-2l-0.2,0.8c-1.8,0-2.1,0.5-3.7,0.5h-1.2c-0.5,1.1-3.4,1.2-5,1.2v0.5h-0.5
			l-2.1-2.6c0.1-0.7,0.3-0.5,0.3-0.9c0-1.4-4.4-6-5.2-6h-0.7c0-1.8-0.1-1.1-1-0.7v-0.7c0-0.2-1.3-3.6-1.4-4c-0.9-1.8-0.7-2-2.5-2.9
			c0-1.4-0.5-1.8-0.5-3.2v-1.7l-0.3,0.1l-0.6-2l-1.1-0.6c-0.2-1.3-1.3-0.3-1.3-3.1h0.5c-1-1.5-5.8-10.2-6-11.9
			c1.9,1,0.8,3.7,3.5,3.7l0.5-3l-0.1,2.8l1.3,0.3c0,1.5,3.1,4.9,3.7,7.7l0.2-0.2l2.2,2.3l0,1.2l0.3,0v1.5c0,3.4,2.2,3.5,3.3,4.7
			c0.9,1.1,1.5,4.4,2.9,4.8v1l0.8,0.2c0,2.3-0.5,3.9,1,4.7l0.8,4.3l2.5,0c0.1,0,1.9-1.2,2.3-1.4c1-0.6,1.6-0.5,2.7-0.8
			c1.4-0.4,1.7-0.1,2.5-1.2c0.4-0.5,1.3-1.2,2.2-1.2h1c0.3-0.8,1.4-1,2.5-1v-2l4.9-1.7l0.9-0.9l0.1-0.9h0.7c0.9,0,1.6-2.2,2.5-2.2
			h0.7v-2.7c0-1,0.4-0.6,1.2-0.5v-1l1.6-1.6l0.4-1.9c0.2-1.4-6.7-2.3-6.7-6.2v-1.7c-1,0.3-1.5,1.9-2.2,2.5c-0.7,0.6-0.9,1.2-1.1,1.3
			c-0.8,0.6-1-0.2-1.4,0.8h-0.7l-2.7,0.3l0-0.5h-1c0.1-0.6,0.2-0.6,0.2-1.2v-2c0-0.7-0.2-0.6-0.7-0.7l-0.6,2.7l-1.4-2.7l0.5,0
			c-0.3-1.1-0.7-2.1-2-2.2v-0.7h-0.7l-1.7-3.6l-0.6-0.1v-0.5h1v-0.7l1.1-0.5c1.1,0.5,1.6-0.2,2.5,0.9c0.7,0.9,0.8,1.7,1.5,2.7
			c1.5,2,3.5,2,4.6,3.6l2.3,0.4l0.7-0.4l2-0.2l0-0.8l1.2,0.6l0,1.2l0.8,0.2c0,1.9,3.1,1.8,5,1.8h1.2c0.3,0.7,0.7,0.7,1.7,0.7h1.5
			v-0.5h0.7l5.5-0.2l1,0c0.8,0,0.7,0.3,0.7,1c2.1,0.5,0.8,1.6,2.2,2.5c0.7,0.5,2.5,1.1,2.7,2h2l-1.9,1.1c0.4,1.6,2.1,3.1,4.2,3.1
			c0.8,0,1.5-0.8,1.5-1.7v-1h0.7l0.6,6.4l0.6,0.3c0,1.4,1.2,5.2,1.7,6.5c0.5,1.5,2.3,3,2.3,5.6l0.7,0.2c0,1.7,0.5,0.8,0.5,1.8v0.7
			c0.8,0.3,2,3.9,2,5.2l0.7,0.3c0,1.1,1.2,2.9,2,2.9h0.7c0.1-0.8,1.3-2.5,2.2-2.7v-0.7c0-0.8,0.5-1.2,1.2-1.2v-2
			c0-1.4,0.5-1.4,0.5-2.7v-4.2c0-0.9-0.5-0.4-0.5-1.2V857c1.3-0.3,1.6,0.1,1.7-1.2h0.7c0.7,0,0.7-0.1,1.2-0.2V854
			c1.2-0.3,2.7-2.6,3.6-3.6c1.4-1.6,3.6-2.2,3.6-3.6l0.7-0.3l0-0.7h-0.5v-1.2l5.2-0.5l0-0.3l0.8-0.1l0.3-0.6l0.7,0.2
			c0-0.8-0.1-1.2,0.7-1.2c1.5,0,1.5,5.6,4.7,5.7l0.9,1.1c0.1,1.9,1.8,2.4,1.8,6.1v0.7c1.3,0.5-0.2,0.2,0.9,0.9
			c0.2,0.1,0.8,0.2,1.1,0.4l2.7-2.5l-0.1-0.3l0.9,0.6c0,1.2,0,2,1,2.2l0.6,3.5c0.9,0.4,1.4,2.2,1.4,3.5v1.7h0.5l-0.6,8.2l0.3,0
			l0.1-1c1,0.1,0.9,0.1,1,1.2c0.8,0.1,2.5,2.6,2.5,3v2l0.8,1.3l0.2,1.4c0,1.8,4.7,4.6,5,5.7h0.5V887h1l-0.9-3
			c-0.1-6.3-2.4-5.2-4.1-8.4l-2.2-0.5l-1-4.4l-0.7,0c-1.7,0,0.5-6.3,0.5-7.7c0-0.6-0.2-0.3-0.2-1.2h1.7v1.7h1.5c0.5,0,2.7,1.8,2.7,3
			v0.7h1v1h1.7v0.5h1c-0.1,0.8-0.2,0.9-0.2,1.7v1.7c1.6-0.2,0.4-1.4,2.7-1.5c0.2-1.4,0.2-0.1,0.7-1.6c0.4-1.2-0.1-0.9,1-0.7
			c1.1-2,2.8-0.6,3.2-4.2c0.3-2.9-1.3-4.6-1.3-5.7v-0.7c-0.8-0.3-1-1.5-1.7-2c-0.9-0.6-1.1-0.6-1.9-1.6c-0.6-0.7-2.8-3.5-3.3-3.7v-1
			c0-0.3,1.3-3.2,1.5-3.5c0.4-0.6,2.2-1.5,3.2-1.5h0.5c0.7,0,0.7,0.1,1.2,0.2v0.7c0,0.9,0.2,1.1,0.7,1.5h0.7v-0.7l-0.3-0.7l4.9-2.4
			l0.1-1.1h0.5l0.3,1l0.7,0l0.3-1l2,0.2l2-1l1.6-2l-0.1-0.6c0.9-0.1,2-1.7,2-2.5v-0.7h-0.7l1.4-1.3l0.4-3.1l1,0l0.2-2.2l-0.6-1.4
			l-2.1-0.7l1-1.3l-0.6-1.2l0.3-0.2v-0.7c-2.2-0.2-4-5.5-6.7-5.7v-1c0-0.6,0.2-0.5,0.5-1l-0.2-1l1,0l1.1-1.4l1.2,0.2
			c0-1.4-0.1-1.1-1.4-1.3c-0.6-0.1-1.9-0.7-2-0.7h-1l-0.3,1c-2.4,0-0.8-1.9-4.2-2l-0.9-1.9c0.7,0,0.7,0.2,1.4,0.2h0.7v-1.5l1.2-0.6
			c0.1-1.2,0.2-1.4,1.5-1.4l1,0.8l-0.3,2.2l0.6,0l-0.2,1.3l0.7,0c0.1-1.1,1.3-2,2.5-2h0.2c0.4,0,2.6,1,3,1.2v2.2
			c0.5,0.3,1.2,0.7,2,0.7h1l1.4,1.6l-0.3,0l-0.7,0.7c1.3,0.2,1.9,1.2,1.9,2.4v1l0.7,1.2l1.5-0.3l0.3-0.7l1.9-0.3l0-1.4
			c0-2-2.3-2.8-2.7-4.5l-3.8-2.7l-0.4-1.3l1.3,0l0.8-1.4l0.2,0.1c-0.1-0.4-1-1.9-1-2c0-0.5,0.1-0.3,0.2-1h0.7l0.2-1.7
			c1.6,0.1,0.9,1,2,1h1.5c0.5-1.3,1.1-0.5,1.2-2.5c0.1-1.4,0.3-1.9,0.3-3.5v-4.2c0-1.1-3.7-3.9-3.7-6.5c2.5,1.7,9.3,11.1,10.2,11.4
			l-0.5-1l1.3,0.2c-0.4-1.5-4-2.4-4-4.4v-0.7l0.8-0.1c-0.6-0.3-4.4-3.9-5.1-4.5c-0.7-0.8-0.5-0.8-1.1-1.4c-0.6-0.6-0.9-0.5-1.3-0.9
			c-0.6-0.5-2-1.6-2.3-2.2c-0.8,0.6-0.1,1,0.7,1.2l-0.5,0.3l0,0.5l0.2-0.2l1,1.3c-2.2-1.2-3.6-3.3-6.9-3.3l0.3,1l-2.2-1.4l0.4,0.9
			c-1.7-0.2-0.4-1.3-2.5-1.5c-2-0.1-1.6-0.5-0.7-1.7c0-1.8,0.5-1.6,0.5-2.7v-1.7c0.6-0.1,0.6-0.2,1.2-0.2h1.5c1.1,0,1.2,0.6,2.2,0.6
			c0.7,0,1.5,0,2.3,0.2l3.7,0.4l0,0.8l4,0.3l-2-1.3l0-1.2l-0.5-0.7c0.3,0,0.6,0,0.8,0.1c-2.7-2.6-5.6-5.2-8.6-7.5
			c-0.1,0-0.1,0-0.2,0c-0.8,0-0.9,0.1-1.5,0.2c-3.4-1.8-7.8-3.1-11.4-4.7c-1.1-0.5-2.2,0-3.5-0.5c-1.1-0.4-1.5-0.7-3-1
			c-1.8-0.4-4.3-1.5-6-1.9v0.5c-1.8-0.2-0.8-0.9-3.7-1c-0.6,0-3.2-0.6-4-0.8v0.5l1.1,0.3l-5.7-0.6l0,0.3c-0.9-0.1-1-0.5-2.2-0.5v0.5
			c-1.3,0-3.4-0.3-3.7-1.2c-2.4,0-2.3-0.9-4.9-1.3c-1.3-0.2-4.2-0.5-5.3-0.6v0.5h-2.7l-9.4-1.1l-1.3,0.1c-2,0-3,0.9-4.5,0h1.5
			l0.2-0.7l2-0.2l0-0.5l-17.6-1.3l-1.7,0.1v0.5h3.2v0.5c-2.5,0.2-4.5,0.5-7.5,0.5c-1.4,0-6.3,0.5-5,1.7l-6,0.5l0,0.5l4,0.5l-7.5,0.1
			l0,0.6l-0.2,0.2l-1.3-1.2c-0.2,1.9-0.5,0.2-1.5,1.5l1.7,0.6c0.1,1.9,2.3,1.2,4.5,1.2v0.2l-2.7,0.2l0,0.5l1,0.3
			c-0.3,1.2-1.4,1.5-2.5,2.2l-3.5-0.5l0-0.3h3l1.2-1.9c-2.7-0.3-2-2.3-3.9-2.4l0.3-1c-0.6-0.1-0.6-0.3-1.3-0.3h-0.2
			c-2.6,0-2.5,0.7-4,1.5l0.1,1.5l3,0.8l0.1-0.3v0.7c-1.4-0.1-3-0.6-4.5-0.7c-2.7-0.2-2.4,0.2-4.2,0.2h-2l1,1l-2.5,0.1
			c-0.1-0.1-4.2,1.2-4.5,1.2h-0.7v-0.5l-5.7,1.7c-0.6,1.1-2.2,1.3-4,1.3l1.7-0.6l0-0.4h-2.7l0,1l-0.3,0l0.3,1.2l-0.1-0.3l-4.7,1.4
			l0.5,1.1l-2.4,0.3l-0.1-0.3l-1.5,0.5l1.1,0.6l-3.3,0.2l0.4-1.3l-1.9,0v-0.5l1.2,0.3l1-0.5c1.7,0.8,5.3-1.1,6.7-1.5
			c-0.3-1.3-2-0.5-3.7-0.5c-1,0.7-0.6,0.4-1.9,0.8c-1.2,0.4-1,1.1-1.3,0.1l-3.7,0.1l1.2-0.6l0-0.4c-1.1-0.1-1.4-0.7-3.2-0.7h-1
			l-0.4,0.8l-0.1-0.8l-1.7,1.3l0.5-1L1196.2,764.4z M1160.9,806.3c-0.3,0.6-0.6,1.2-1,1.9C1160.4,807.7,1160.8,807.1,1160.9,806.3z
			 M1370.4,952.4c9.8-10.8,17.8-23.3,23.4-37l0.5-1.2l-0.5,0.1l0.4-1.3l0.2-2.7l0.1-2l-0.2-0.1l-1.9,3l0,0.9l-1.8,3.1l-1.1,3.1
			c-0.6,0.5-2,2.5-2.8,2.5c-0.4,0-4.2-3.4-4.2-4c0-0.2,1.3-1.6,1.5-1.7l-0.3-1l1.5-0.6c0.1-1.4,0.5-0.5,0.5-1.4
			c0-0.4-0.4-0.4-0.7-0.5v0.7h-0.5v-0.5c-1.6,0.1-4.1,0.3-4.2-1.7l-1.7,1l0.2,0.2h1c-0.1,1.3-1.6,1.7-2.5,1.2l-3.6,4.1l-0.1,1.2
			h-1.7c-0.1-0.5-1.1-1.7-1.7-1.7c-0.8,0-1.4,0.4-1.5,1.2l-1.7,0.3c-0.2,1.8-1.5,1-1.5,2.2v1c-0.7,0.2-0.4,0.2-1,0.2
			c-0.1,0-0.5-0.2-0.7-0.2c-0.2,0.7-0.2,0.4-0.2,1c0,0.1,0.2,0.5,0.2,0.7l-0.9,0.9l-0.1-1.6c-1,0.3-2,1.2-2,2.5v0.7
			c-1.1,0.3-3.4,3.5-4.7,3.5h-1.7c-0.5,1.2-3.8,1.4-5.1,2.1c-1.4,0.8-3,2-4.1,2.6c-0.3,0.2-1.5,1.9-1.5,2.2v1
			c-1.1,0.4-0.6,1.9-0.2,2.7l-0.4,1l-0.4-1.3l-0.4,0v1l-0.4-0.5l0.1,6.7c-1.6,2.2-1,4.3-4.1,5.5v0.7c3,0.7,3.1,0.1,5.9-0.8
			c0.8-0.3,2.1-1.1,2.7-1.3c0.8-0.2,2.3-0.1,3.3-0.4c0.7-0.2,4-2.2,5-2.7c2.1-0.9,3.2-0.5,5.4-2c2,0,2.4-0.7,3-0.7h1.2l0.3,1
			l1.4-0.8l-0.6,1.5l-1.3,0.5l0.1,0.3l1.5-0.3l1.2-1.7l0.3,0.2l-1.1,2.4c0.7-0.1,1.4-0.2,1.4,0.7v0.5c0,1.1-0.5,1-0.5,1.7
			c0,0.6,0.2,0.3,0.2,1.2l1.3,0.6L1370.4,952.4z M1398.4,902.6c0.7-2.3,1.3-4.7,1.9-7.1c-1-1.1-1.2-0.3-3-1.5
			c-0.8-0.5-3.4-1.6-4.6-1.6c-0.2-0.6-0.3-0.7-1.2-0.7h-0.2c-0.7,0-0.7,0.1-1.2,0.2v1h-1.2c-0.3,1.1-1,2.1-2.2,2.2l-0.2-1.5l-0.3,0
			l-0.3-3.5l-2.6-0.8l-3,1c0.3,2,1.8,0.9,2.5,2.7h2.5v0.5l-1.3-0.2c-0.1,0.5,0,0.7-0.7,0.7h-1v0.5l1,0.3l0,2l1.5-0.7l1.5,0.3
			l0.3,0.9c2,0.1,3.6,1,4.4,2.2l0.1,3c-1.3,0.1-1.4,1.1-1.8,2c1.7,0,1.3-0.5,2.5-0.5h0.7l0.8,1.4l1.9,0.1c0.8,0,1.5-0.2,1.5-1
			c0-0.5-0.1-0.3-0.2-1h1c0.2-0.6,0.2-1,1-1L1398.4,902.6z M1166,808.6c0,0.9-0.1,0.1,0.2,0.7l-0.4,2.6l1.7-0.8c0-0.9,0.9-3.5,0-3.5
			C1167.1,807.6,1166,808.3,1166,808.6L1166,808.6z M1366.3,909.8c1.5-0.4,5.5-2.9,6.2-4c-3.3,0-3.7,1.9-5.5,2L1366.3,909.8z
			 M1360.4,843.8c0-1.6,0.5-1.9,0.5-3.5v-3h-0.7c-0.9,0-1.5,1.7-1.5,2.5v1.2C1358.6,842.2,1359.5,843.6,1360.4,843.8z M1342,847
			l0.3,0.5l-1.5,0.6l0,0.7h-0.7v2.2h0.7v0.5h2.2c0.3-1,1-2.1,1-3.5c0-0.6-0.7-0.5-1.2-0.5v-1.2v0.7L1342,847z M1288.6,874.1
			c0,0.1,0.8,3.1,1,3.7h1c1,0,2.2-1.1,2.2-1.7v-1.7c0-1.2-0.5-1.8-1.5-2c0-1.2-0.8-2.4-2-2.5v0.7c0,1-0.1,1.5-0.7,1.7V874.1z
			 M1374.2,800l0.6,2.1l-1.3-0.2l0.8,0.7c-0.2,0.7-0.2,0.5-0.2,1c0,0.1,1.5,1.7,1.8,2l1-0.9l-1.8-1.1c1.4,0,2.8,0,3.2,1h1
			c0-0.9,0.1-1.5,1-1.5l0.8-0.1l-1.6-2.2h-0.5c-0.4,1.1-5-2.2-6.2-2.6L1374.2,800z M1371.6,869.4l0.3,1.5l-1.2,0.8l0.2,0.2h-1v0.5
			l-1.7-1.1c-0.2,1.1-1.2,1.7-2.1,1.8c-0.1,0.6-0.2,0.6-0.2,1.2v1c0.6-0.1,0.7-0.1,0.7-0.7c0-0.9,0.4-1.6,0.7-0.5l1.1-0.6l-0.1-0.3
			l1.2,0.6l0,2.3l0.9,1.2l0.9,0.1l0.1-0.5l0.1,1c0.5-0.1,0.9-0.1,0.7-0.7l-0.3-2l1.3,1.2c0.1-0.8,0.3-0.9,0.3-1.7v-2.5h-0.5v-2
			L1371.6,869.4z M1364.9,855c0-1-0.2-2.2-0.6-2.8c-0.3-0.5-1.7-1.1-2.1-1.1l-1,0l0.4,5l-0.8-0.5l0.5,3.3l0.8,0.6l0.4,0.1V859h0.5
			l-0.3,1.7l1.7,0.9l0.1-0.7l2,1l-0.3-1l1.4,1.6l1.4,0.8l0-1.2l-1-0.9l0.5,0v-0.5c-0.2-0.1-2.1-0.7-2.2-0.7h-0.7
			c-0.8,2-1.5-2.3-1.5-3v-0.7h0.7C1364.7,855.7,1364.9,855.6,1364.9,855L1364.9,855z M1345.2,902.9v1h-3c-0.8,0-0.7-0.4-0.7-1.2h-1
			c-0.9,0-0.4-0.5-1.2-0.5h-2.2l-1.2,1.5c0.3,0.5-0.1,0.7,0.7,0.7h1v0.7h1c0.6,0,0.5,0.2,1,0.5l12.2,1.8l0-0.8c0.4,0.4,0.5,1,1.2,1
			c0.3,0,1.4-1.5,0-1.5h-1.2v-0.7h-2.7c0.2-2.1,1-0.1,2-1.5l-4.7-0.5l0-0.5L1345.2,902.9z M1371.7,886.1c-2.2,0-1.5,1.5-2.4,1.4
			l-4-0.3l0-0.4h-0.7c-0.4,0-2.5,1.7-2.5,2.7v1.5c-1,0.3-1,1.2-1,2.5c-0.2,0.3-1,1.6-1,2v1.2c0.8,0,1.2-0.1,1.2,0.7v0.5
			c0,1.3-0.7,1.2-0.7,2v0.5c0,0.5,0.1,0.4,0.2,0.7l1.4-0.6l0-1.6c0-1.1,0.4-0.7,0.5-2.2c0-1.3-0.3-1.4,1-1.5l-0.2,1.5
			c0.3,0.5,0.7,0.6,0.7,1.2v1.2l2.4-0.9l-0.7-1.4c0.1-0.6,0.2-0.7,0.2-1.5c0-0.1-1.1-1.9-1.2-2.2c1.4-0.4,2-1.7,2.7-1.7h0.7v-1h-1.2
			v0.5l-2.5,0.3l-0.3,0.9l-1.2,0c-0.1-1.3-0.7-1-0.7-2c0-0.7,0.4-0.6,0.5-1.7l5.7,0.3l1.4-0.1L1371.7,886.1z M1381.5,811.8
			c-0.1-2.8-2.9-3.8-3.5-6.2l-1.3-0.2l0,0.4l-0.6,0l0.9,2.7c0.7,0.2,1.4,2.3,1.4,2.8v0.2c0,0.9-0.5,0.4-0.5,1.2v1l-1.5,0.5l-0.3-1.3
			l-0.4,0v1.5l0.3,2.2l-1,0v-0.5l-4.2,0.7l0.2,0.2l-1.5,1.5l-0.2-0.2c0,1.4,0,1.7-1.2,2c0.1,1.1,1.4,2.8,2.2,2.5
			c0,1.8,0.3,2.3,2,2.5l0-4.2l-1-0.3l0-0.7h-1v-0.5h0.7c0.5,0,0.4,0.1,0.7,0.2v-0.7c1.5,0,2.4-1,3-1h0.5c1,0,0.9,0.6,0.7,1.2
			l1.8,1.7l0.2-0.2l-0.3-1.7l0.7,0l-0.9-1.1l2.6,0.5l0-0.6h0.5v0.7h0.7l-0.3-1.2c0.5,0.2,1.7,1.5,1.7,0V817c0-0.3-1.2-2.4-1.2-4.2
			l-0.9-0.9L1381.5,811.8z M1321.9,879.1l-3.7-0.2c0.5,3.6,4.2,3.1,4.5,6.7l2.2,1.1l0.3,3.2c2.5,0.7,2.8,4.6,3.9,6.5
			c0.7,1.1,0.9,0.7,1.4,1.3c0.4,0.5,0.3,1,0.9,1.5c1.3,1.1,1.6,1.1,2.6,2.6l1.7-0.2l0.9,0.5c0.7-2.9,0.9-4.4,0.3-7h-0.7
			c-1.1,0-0.1-0.3-1.2-0.7v-2h-1.5c-0.1-0.6-0.2-0.6-0.2-1.2v-0.7h0.5l-0.5-1.3l-1,0.3l-2.8-3l-0.2,0.2l-0.2-1.2l-0.8,0v0.5h-0.5
			c-0.3-1.4-1.9-2.8-3-3.5c-1.2-0.8-0.9-0.5-1.4-1.8C1322.7,878.6,1322.4,880.4,1321.9,879.1L1321.9,879.1z M1232.5,927.9
			c0.4-1.5-0.1-3.3,1-3.7v-2.5l0.7,0.3l0-4.5l-1.6-2.9l-0.4-0.1l-0.8,0.8l0.3,2l-1.2,0.5l0.1,0.2l-0.6-0.6l-0.4,2.6l-0.7,0
			c-0.2,2-0.6,0.1-1.7,1.7l-3.2,0.8c0,1.5-0.9,1-0.9,2.4c0,1,0.5,2,0.6,2.8c0.8,4.9-1.7,3.6-1.5,4.9l0.3,2.5l0.5,0v1
			c0,2.9,1.9,2.1,2.5,3.5l3.4-0.9c0.8-1.3,1.6-5.4,2.3-7.3C1231.6,930.6,1232.2,928.8,1232.5,927.9L1232.5,927.9z M1359.9,879.6
			c1.2,0,1.4-0.1,1.5-1.2l-2.7-1.4l-0.1-0.6c0-0.9-1.2-1.1-2-1.2l-1.7,3.4l-0.2-0.1v1h-1.2l-1.4,1.2c-0.2,2.1-2.2,3.6-4.6,3.6
			l-0.3,2.5l-3-0.6c-0.4,0.1-1,0.4-1,1.1v2.5c0,1.3,1,1.9,0.7,3h1l0,3.5l2,0.3c0.2,0,0.3-0.4,1-0.5v1.2l2.3-0.6l2.4,0.5l0.3,1.4
			l2.1-1.1l0.1,0.6h0.5c0.4-1.7,0.9-3.1,0.2-4.5l2.3-1.9l0.2,0.2v-1.7c0-0.8,0.5-2,1.2-2h1.2c-0.4-1.7-1.7-1.1-1.7-2
			c0-0.9,0.2-0.5,0.2-1.5h-0.5V883c0-1.3,0.1-0.9,0.2-2.2h1.2L1359.9,879.6z M1199.2,774.3l0-0.8h-0.5c0-0.6,0.2-0.7,0.7-0.7h0.7
			c0.7,0,0.7,0.1,1.2,0.2l-0.3,1L1199.2,774.3z M1189.8,774.6l1-0.1l-0.7,0.6l-0.1,1.2l1.2,0.3l1.3-0.9l4.8-1.2l0.2,0.6l-2.8,0.9
			l-0.8,0.3c-1.5,0-3.1,0.3-3.3,1.7h0.7v0.7c-1.4,0.6,0.6,1.1-1.5,1.2c-0.2-0.4-0.2-0.7-1-0.7c-1,0-1.9,1.9-2.3,2.9
			c-0.2,0.5-2.2,1.9-2.7,2.3l-2.2-0.3c-0.5,1.4-2.1,1.3-3.2,2.1l-1.5-0.3l0.6-1.4l-0.9,0.2l-0.2-0.2l2-2.5l0.4,0.2l-0.7,2.4
			c1.6-0.8,1.6-1.7,3.5-1.7c0.9-1.3,0.9-1.9,2.2-3c0.8-0.7,2.6-1.6,2.8-2.4l-1.1-0.2L1189.8,774.6z M1312,777h0.5l1.3,3l-0.8,0v0.7
			h0.7l-0.6,1.2l-1.7,0.5l0,1.2l-3,0.3c1.4-1.3,3.5-1.6,3.5-4.8L1312,777z M1208.4,793.4h1.5v0.5l-2,0.6l0,0.4l1,0.3l-1.5,1.8
			l0.3,0.2h-1c0.9,1.2,7.7,4,7.7,5v1c0,1.2-2.1,1.7-3.5,1.7h-2.5c-1.4,0-2.2-0.1-2.7-1c-1.7,0-1.3-0.5-2.5-0.5h-1.2
			c-1.2,0-4.1,2-4.2,2h-1.7c-2,0-2.6-0.9-3.2-2.2l1.3-2.1l0.5-2.1c2.5-0.6,1.6-3.4,4.2-4l0.3,1l2.9,0l-1.9,1.2l0.1,0.3h1.5
			c0,1.1-0.7,2.3,0.8,1.4c0.9-0.6,1.6-0.6,1.9-1.4h1.5v-0.5h-1.7l-0.9-0.9c0.2-0.9,3.2-2.1,4.4-2.1h0.7L1208.4,793.4z M1223.1,795.7
			c2.3-0.1,3.2-2.8,5.5-2.7l2.5,0.1c0.9-0.1,0.5,2.9,1.7,2.9c0.5,0,0.3-0.1,1-0.2l0.3,1l-1.3-0.4l-3-0.3c-0.7,0-0.3,0.3-1.2,0.6v0.7
			l0.5,0.1l-1.3,0.1v0.5c1,0.1,1.5,1.3,1.7,2.2c1.5,0.1,0.5,0.5,1.5,0.5h1c-0.1,4.1,1.2,3.1,1.2,5.7h1l-0.2,1.3l1.1,0.8
			c0,1.9,0.5,2.2,0.5,3.2v0.7l-1.8,0.5l0.1,0.3h-3c-0.6-2.1-4-1.2-4-3.7v-0.2c0-0.6,0.4-0.7,0.7-1.2v-2l1-0.3l-1.2-0.5l-3.6-4
			l-0.4-2.3l-1.6-1l0.5-0.1L1223.1,795.7z M1203.3,888.9c2.4,0.4,0.5,0.4,2.1,1.5V890h0.7v0.5l-1.2,0.3l-1.4,3.4l0.6,0.2l-2.5-0.1
			l0,0.4h-0.5v-1h-0.5l0.3-3.7L1203.3,888.9z"/>
		<path id="path3705" class="st1" d="M850.9,505.7c193,0,366.7,83.1,487.2,215.4h-13.6H1177H268.3v-10.9h895.4
			C1050.7,619,907,564.4,750.5,564.4c-100.4,0-195.5,22.5-280.6,62.7C577.5,550.7,709,505.7,850.9,505.7z"/>
		<path id="path3707" class="st1" d="M545.7,1208.9c-193,0-366.7-83.1-487.2-215.4h13.6h147.5h908.6v10.9H232.9
			c113,91.1,256.7,145.8,413.2,145.8c100.4,0,195.5-22.5,280.6-62.7C819.2,1164,687.7,1208.9,545.7,1208.9z"/>
		<path id="path3709" class="st2" d="M300,648.1h-22v11.1h22c1.7,0,2.8-0.2,3.5-0.7c0.6-0.5,0.9-1.4,0.9-2.6v-4.5
			c0-1.2-0.3-2.1-0.9-2.6C302.9,648.3,301.7,648.1,300,648.1z M268.4,682.9v-42h36c3.3,0,5.8,0.6,7.3,1.9c1.5,1.3,2.2,3.4,2.2,6.2
			v9.4c0,2.8-0.7,4.9-2.2,6.2c-1.5,1.3-3.9,1.9-7.3,1.9H278v16.4H268.4z M360.4,682.9v-42h9.8V675h31.5v7.9H360.4z M458.4,666.1
			h18.4l-9.1-17.1L458.4,666.1z M439.6,682.9l23.8-42h9.4l24.1,42h-11l-5-9.2h-26.6l-4.9,9.2H439.6z M541.9,682.9v-42h6.7l29.6,24.8
			c1,0.8,1.9,1.6,2.7,2.3c0.8,0.7,1.5,1.5,2.1,2.2c-0.1-2.4-0.3-4-0.3-5c-0.1-1-0.1-1.7-0.1-2.3v-22.1h8.8v42h-6.7l-30.9-26
			c-0.7-0.7-1.4-1.3-2-1.8c-0.6-0.5-1.1-1.1-1.5-1.6c0.1,1.3,0.2,2.5,0.3,3.7c0.1,1.2,0.1,2.1,0.1,3v22.7L541.9,682.9z M644.3,682.9
			v-42h43v7.2h-33.3v9.4h19.4v7.2h-19.4V675h33.7v7.9L644.3,682.9z M756.9,648.3v34.5h-9.8v-34.5h-19.3v-7.5h48.4v7.5H756.9z"/>
		<path id="path3711" class="st2" d="M522.9,1073.8v-42h43v7.2h-33.3v9.4h19.4v7.2h-19.4v10.4h33.7v7.9L522.9,1073.8z M609.5,1073.8
			l19.9-21.6l-20.3-20.4h13l13.4,14.3l12.8-14.3h11.3l-18.3,19.3l22.7,22.7h-13.3l-15.4-16.3l-14.2,16.3L609.5,1073.8z M737.6,1039
			h-22v11.1h22c1.7,0,2.9-0.2,3.5-0.7c0.6-0.5,0.9-1.4,0.9-2.6v-4.5c0-1.2-0.3-2.1-0.9-2.6C740.4,1039.3,739.3,1039,737.6,1039z
			 M705.9,1073.8v-42h36c3.3,0,5.8,0.6,7.3,1.9c1.5,1.3,2.2,3.4,2.2,6.2v9.4c0,2.8-0.7,4.9-2.2,6.2c-1.5,1.3-3.9,1.9-7.3,1.9h-26.3
			v16.4H705.9z M829.6,1039h-22v11.7h22c1.7,0,2.8-0.2,3.5-0.7c0.6-0.5,0.9-1.4,0.9-2.6v-5.1c0-1.2-0.3-2.1-0.9-2.6
			C832.5,1039.3,831.3,1039,829.6,1039L829.6,1039z M798,1073.8v-42h36c3.3,0,5.8,0.6,7.3,1.9c1.5,1.3,2.2,3.4,2.2,6.2v9.9
			c0,2.8-0.7,4.9-2.2,6.2c-1.5,1.3-3.9,2-7.3,2h-5.5l19.4,15.9h-14l-16.9-15.9h-9.3v15.9L798,1073.8z M894.8,1073.8v-42h43v7.2
			h-33.3v9.4H924v7.2h-19.4v10.4h33.7v7.9L894.8,1073.8z M1024.3,1039.1h-27.5v9h26.2c4.1,0,6.9,0.7,8.3,2.1c1.5,1.4,2.2,4,2.2,7.8
			v5.8c0,3.8-0.7,6.4-2.2,7.8c-1.4,1.4-4.2,2.1-8.3,2.1h-26c-4.1,0-6.9-0.7-8.3-2.1c-1.5-1.4-2.2-4-2.2-7.8v-1.2l8.6-1.8v5h29.7
			v-9.6h-26.2c-4.1,0-6.8-0.7-8.3-2.1c-1.4-1.4-2.1-4-2.1-7.8v-4.6c0-3.8,0.7-6.4,2.1-7.8c1.4-1.4,4.2-2.1,8.3-2.1h23.8
			c4,0,6.7,0.7,8.2,2c1.5,1.4,2.3,3.8,2.3,7.2v0.9l-8.6,2V1039.1z M1121.7,1039.1h-27.5v9h26.2c4.1,0,6.9,0.7,8.3,2.1
			c1.5,1.4,2.2,4,2.2,7.8v5.8c0,3.8-0.7,6.4-2.2,7.8c-1.4,1.4-4.2,2.1-8.3,2.1h-26c-4.1,0-6.9-0.7-8.3-2.1c-1.5-1.4-2.2-4-2.2-7.8
			v-1.2l8.6-1.8v5h29.7v-9.6H1096c-4.1,0-6.8-0.7-8.3-2.1c-1.4-1.4-2.1-4-2.1-7.8v-4.6c0-3.8,0.7-6.4,2.1-7.8
			c1.4-1.4,4.2-2.1,8.3-2.1h23.8c4,0,6.7,0.7,8.2,2c1.5,1.4,2.3,3.8,2.3,7.2v0.9l-8.6,2V1039.1z"/>
		<path id="path3713" class="st3" d="M291.1,792.4c1.8-10.5,1.7-17.9-0.1-22.4c-1.8-4.5-6.1-6.7-12.8-6.7l1.2-7.3h140.3
			c12.5,0,22.2,0.2,29.2,0.6c7,0.4,13.7,1.5,20.2,3.3c6.5,1.8,11.7,5.3,15.7,10.3c3.9,5,5.3,11.1,4.1,18.3
			c-3.3,19.4-22.6,35.7-57.9,49.1c-17.9,6.8-45.5,14-82.7,21.8l-8.7,51.4c-3.3,19.4,1.9,29.1,15.5,29.1l-1.2,7.3H247.2l1.2-7.3
			c6.7,0,11.7-2.2,15-6.5c3.3-4.4,5.9-11.9,7.7-22.5L291.1,792.4z M352,838.4c20.7-3.9,36.8-9.8,48.2-17.7
			c9.4-6.6,14.8-14,16.2-22.4c1.3-7.8-1-13.5-6.8-17.3c-5.8-3.8-13.6-5.7-23.2-5.7c-10.5,0-17.6,1.9-21.4,5.8
			c-2.7,2.9-4.9,9.1-6.5,18.6L352,838.4z M607,756.1l-0.9,7.3c-6.9,0-12.1,2.2-15.5,6.5c-3.4,4.4-6,11.9-7.8,22.5l-19.5,115.7
			l-0.7,4.1c-0.8,4.5-0.1,7.9,1.9,10.5c3.2,3.7,9.8,5.5,19.8,5.5c18.3,0,36.4-6.2,54.4-18.6c15.9-11,28.9-24.6,39-40.7l6.4,2
			L642.5,952c-0.7-1.4-2.1-2.5-4.5-3.3c-2.3-0.9-6-1.3-11.2-1.3h-5.7H469.5l1.2-7.3c6.9,0,12.1-2.2,15.5-6.5
			c3.4-4.4,6-11.9,7.8-22.5l20-118.6c1.7-10.3,1.6-17.7-0.3-22.2c-1.9-4.6-6.3-6.8-13.2-6.8l1.2-7.3L607,756.1z M675.1,947.3
			l1.2-7.3c6.9,0,12.1-2.2,15.5-6.5c3.4-4.4,6-11.9,7.8-22.5l20-118.6c1.7-10.3,1.6-17.7-0.3-22.2c-1.9-4.6-6.3-6.8-13.2-6.8
			l1.2-7.3h152h7c5.4,0,9.7-0.2,13-0.7c3.3-0.5,6.3-1.8,8.9-3.9l5.7,67.1l-7.7,1.7c-2.3-13.9-9.4-24.9-21.2-33
			c-11.8-8-26.2-12.1-43.2-12.1c-13.4,0-22.4,2-27.1,6.1c-3.6,3.1-6.3,9.7-8,19.8l-1.4,8.1l-1.6,9.3h10.7h8.4
			c12.1,0,20.5-1.1,25.3-3.2c7.7-3.3,12.4-10.1,14.2-20.3l6.8-0.9l2.3,73.8l-6.8,0.6c-1.3-4.5-2.9-8.4-4.9-11.8
			c-2-3.4-4.6-6.6-7.9-9.7c-4.3-3.9-9.1-6.4-14.5-7.6c-5.4-1.2-12.1-1.7-20.1-1.7h-7.7h-9l-9.5,56.1c-2.3,13.8-1.3,23.1,3,27.9
			c3.7,4.3,11.6,6.4,23.7,6.4c20.3,0,38.9-5,55.8-15.1c15.4-9.1,29.2-22.1,41.4-38.9l6.6,2.3L860.5,952c-1.9-2.1-4.3-3.4-7.4-3.9
			c-3-0.5-7-0.7-11.9-0.7L675.1,947.3z M1106.3,906.4c3.3,5.6,5.8,9.9,7.5,12.8c3.3,5.6,6.1,9.7,8.3,12.2c4.1,4.7,9.5,7.6,16.3,8.7
			l-1.2,7.3H1015l1.2-7.3c3.8,0,7.5-0.9,11-2.8c3.5-1.8,5.6-4.4,6.2-7.7c0.6-3.5-0.1-7.8-2.2-12.8c-0.9-2.3-3-6.3-6-11.9l-20.4-39.8
			L979.6,895c-9,10.9-13.6,16.4-13.8,16.6c-5.7,7.6-9,13.6-9.7,18c-0.6,3.5,0.2,6,2.2,7.6c2.1,1.5,5.2,2.5,9.4,2.9l-1.2,7.3h-75.7
			l1.2-7.3c9.1-1,18-5,26.8-12.2c4.4-3.5,9.4-8.1,15.1-14c3.5-3.5,8.3-8.6,14.3-15.4l46-52.3l-22-42.4c-6.2-12.4-11-20.7-14.5-25
			c-7.2-9.1-15.7-14.2-25.5-15.4l1.2-7.3h121.2l-1.2,7.3c-3.8,0-7.2,0.8-10.3,2.3c-3.1,1.6-4.8,3.9-5.4,7c-0.4,2.1,0.3,4.9,1.9,8.4
			c0.8,1.7,1.7,3.4,2.5,4.9l16.6,32.3l19.2-20.3c6.2-6.2,10.8-11.3,13.8-15.3c3-4,4.7-7,5.1-9.2c0.5-3.1-0.6-5.5-3.5-7.1
			c-2.8-1.6-6.4-2.7-10.5-3.1l1.2-7.3h74l-1.2,7.3c-8.9,1-16.7,3.8-23.5,8.4c-4.8,3.1-10.8,8.6-18.2,16.6l-26.2,28.2l-18.6,20.9
			L1106.3,906.4z"/>
	</g>
</g>
</svg>
